<mxfile host="app.diagrams.net" modified="2024-07-20T07:39:40.121Z" agent="Mozilla/5.0 (Macintosh; Intel Mac OS X 10_15_7) AppleWebKit/537.36 (KHTML, like Gecko) Chrome/126.0.0.0 Safari/537.36" etag="RcrsK-nQIbaYyIhmWkhY" version="24.6.5" type="github">
  <diagram name="第 1 页" id="nzcP8tCNGWYCVh9dFsFS">
    <mxGraphModel dx="2228" dy="962" grid="0" gridSize="10" guides="1" tooltips="1" connect="1" arrows="1" fold="1" page="0" pageScale="1" pageWidth="827" pageHeight="1169" math="0" shadow="0">
      <root>
        <mxCell id="0" />
        <mxCell id="1" parent="0" />
        <mxCell id="vfQgxKkF1GxTrXVjqXVF-3" value="" style="shape=image;verticalLabelPosition=bottom;labelBackgroundColor=default;verticalAlign=top;aspect=fixed;imageAspect=0;image=data:image/png,iVBORw0KGgoAAAANSUhEUgAAAyAAAAMgCAIAAABUEpE/AAAAAXNSR0IArs4c6QAAAERlWElmTU0AKgAAAAgAAYdpAAQAAAABAAAAGgAAAAAAA6ABAAMAAAABAAEAAKACAAQAAAABAAADIKADAAQAAAABAAADIAAAAADAlM0/AABAAElEQVR4Ae3de9wldV0HcPfSLuu2z8MCcl8uGcZlEeSaULQiycuIpJdBEhqXV1iGIBika4ko4optRKaCUBKv5CJlpFFqBa2IUshF0pRLUbgucatlHwRaWp6nb0wMx+fsnjPnnJnnnJnf+/ljmTPzm9/8fu/vsM9nZ+acM2tqauolfggQIECAAAECBMoTmF1eV3oiQIAAAQIECBD4PwEBy3lAgAABAgQIEChZQMAqGVR3BAgQIECAAAEByzlAgAABAgQIEChZQMAqGVR3BAgQIECAAAEByzlAgAABAgQIEChZQMAqGVR3BAgQIECAAAEByzlAgAABAgQIEChZQMAqGVR3BAgQIECAAAEByzlAgAABAgQIEChZQMAqGVR3BAgQIECAAAEByzlAgAABAgQIEChZQMAqGVR3BAgQIECAAAEByzlAgAABAgQIEChZQMAqGVR3BAgQIECAAAEByzlAgAABAgQIEChZQMAqGVR3BAgQIECAAAEByzlAgAABAgQIEChZQMAqGVR3BAgQIECAAAEByzlAgAABAgQIEChZQMAqGVR3BAgQIECAAAEByzlAgAABAgQIEChZQMAqGVR3BAgQIECAAAEByzlAgAABAgQIEChZQMAqGVR3BAgQIECAAAEByzlAgAABAgQIEChZQMAqGVR3BAgQIECAAAEByzlAgAABAgQIEChZQMAqGVR3BAgQIECAAAEByzlAgAABAgQIEChZQMAqGVR3BAgQIECAAAEByzlAgAABAgQIEChZQMAqGVR3BAgQIECAAAEByzlAgAABAgQIEChZQMAqGVR3BAgQIECAAAEByzlAgAABAgQIEChZQMAqGVR3BAgQIECAAAEByzlAgAABAgQIEChZQMAqGVR3BAgQIECAAAEByzlAgAABAgQIEChZQMAqGVR3BAgQIECAAAEByzlAgAABAgQIEChZQMAqGVR3BAgQIECAAAEByzlAgAABAgQIEChZQMAqGVR3BAgQIECAAAEByzlAgAABAgQIEChZQMAqGVR3BAgQIECAAAEByzlAgAABAgQIEChZQMAqGVR3BAgQIECAAAEByzlAgMBwBE466aRddtllxo797//+77NmzfrjP/7jGTti5wPFSGI8MarOzWwlQKCmAgJWTQtn2AQGEsh+u8cv+PiZO3fuDjvsEHFnzZo1A3Va551XrVqVaXz605+eNo9DDz00Ni1dunTa+k29/MQnPjE6MW5Tg7SeAIGqBQSsqoX1T2B0BT7wgQ/8yZ/8yaWXXvr6178+gsVP/dRP/fd///foDrf6kW222WZXX31163HiCtPXvva1WN+6svNywYD1lre85Zlnntl5550792YrAQI1FZhb03EbNgECgwtErjrggAOin1/5lV/ZaqutLrzwws9//vPHHXfc4D239hChbd68ebNnl/bPuampqehzwYIFrUcpZflnfuZnQuDxxx8PjazDyFvbbLPNbrvttnbt2lIOEZ089dRTCxcunPP8T1l96ocAgVETKO2vvFGbmPEQINCTwE/+5E9G+3/913/N97rnnnt+4Rd+YYsttojrN5HDInnkm2LhgQceOPbYY2PrS1/60h//8R//q7/6q3xrdrvt2muv/e3f/u24+RgNJiYmYutf/MVfxI226C3+vP766/P22cLk5OTFF1+81157RYPINL/6q7/ammniaa2f/dmf/dKXvhQjiWj1yU9+MvZ64oknzjzzzCVLlsyfP/9Hf/RHIyBGJ3m3sTXue46Pj2+++eYnnnhivMw3bWrhDW94Q3T1p3/6p3mDCFiROCML5Wti4Yorrjj88MO33nrraLznnntecskl+dYY5z//8z9/+ctfzm44Llu2LDZlN2Rj5a//+q/HXjvuuGO+MnsG66abbooAeu655+b9xHGjh9ae800WCBCohYArWLUok0ESqFwg+02/ePHi7EiREuLZo4hH7373u+Nyy3XXXXfMMcd89rOf/fmf//lo8MgjjxxyyCFPP/30GWecseWWW1555ZU/93M/92d/9mfZ1qyH888/Py5cnX322evXr4+Fv/mbv3njG98YcWTFihX/+Z//efLJJ2c5I59YJKoIIrE++vy3f/u3j33sY3fddddXv/rVH/qhH8ra3Hvvvccff3w0O/XUU3/sx34sjh73NOO5sViz0047xY285cuX/8d//EektGgfV7kiLd1yyy2/9mu/tscee0Sei4yVH2tTC5EFY69rrrnmbW97W7S5++67w+EP//AP/+mf/ql1l8g9EQRjyvH42l/+5V9GbIpgd9ppp0WbOPrpp5/+wz/8w7/1W78VLyMp5jtGs5e97GWRouIKVr4yW4i4FltDJpD322+/mEV0csQRR8Tgp7X0kgCB2gjEX0N+CBBITSCuwcRfUn/3d3/32GOPrV69OrJR/O6P6zGxnFG89rWv3XvvveNOXPYyAkQkqrhTlr2M60ax+1e+8pXs5ZNPPrnrrrvGxZvnnnsu1vz93/99bP2RH/mRyEBZg/hz33333W677eIyUrYm8la0iSeQspfRVby86qqrspfx5xe/+MXWNdmzSrEybxABLpLffffdl6+JLBiXmr773e/GmrhaFrt/5CMfybZu2LAhu0QXE8/bty5kY45rVzfccENcOso6Oeecc2IW0SySXCSqvH3rvGLlkUcemTXLGkTLaJ83joVM+yd+4idiGPn6bGVEyWxNpK64CBf7hvlRRx01Njb24IMP5o0tECBQOwG3COMvYT8EEhWIaySRq+IWW9wKjLASNwGzq0r/9V//FTet4tZYJKd4ICl+4ppTxIj7778/e6fhX//1Xx900EGRGDK4uGDz1re+Na6Bffvb384p44pR/phUXJL5xje+EWvihl3W4Kd/+qfjalbeOJJNbIqV2eHiz/333z+6zXJP1iwyXIyhdZfITHHJLd8lphMJ7+abb442McK4vJRdiIqXEbzimlC+b4eF173udXHfM+5vxt/m8WdcM2tvnM9r3bp1cfSIU3HDNJbbW7auiQtv0241tm6Ni2dxAe873/nOYYcdFvdbf+/3fi8uy7U2sEyAQL0E3CKsV72MlkCZAh//+Mdf8YpXRDL41Kc+FbkkrmBlvf/Lv/xLxIv3Pv8z7XiPPvpo3DeMiysHH3xw66a4DRcvY33+cQaRh/IGsT6W4wJYviYW4jbfnXfema2J6BbDiOeTWhvEchwuX9PaYayMXeLOXQTEvEG2kO0SR4wLZhHR8q1xuHy5w0LckYxny+IRqEiQcT3vl37pl9obx43L973vfbfeemtcysq3xvjz+JivbF2YNv7WTdly3JONRBhFiRx5yimntDewhgCBGgkIWDUqlqESKFkgMkT2LsJ49CcuR0WYiOecIpRkj4rH41OtV4yyY8dtrIKDyC/zFGkfR4x0FbcIpzVuzU/TOoxd4orXb/7mb07bJSLjtDW9vgyH+OiK8847b5999mm9zJb1E+8DiPunu++++0UXXRQX/+LxsrhaFhecMrQOx5o2/vaW8bBavD8g1schIrrFNa32NtYQIFAXAQGrLpUyTgIVCsStq3jC+jWveU08Wh5PMsUTRXGwuJYTN902etR4IiqiWOumeMthvMyelGpdny1n6+OaU+um1h5e/vKXxwNhcQmnawrJe4hdvv/973cY4Y033hgN8otYrYfLO9noQmTNuD0XWSfeltjeIJ5qjyQUt1PzW3it9zGjfTzC1b5XkTVxVSxuEa5cufJd73pXVOGjH/1okb20IUBgNAU8gzWadTEqAjMtEB8oEBe04k1w8ZB1XEyKl/FRCPHsVOs44on47GV8XtRtt90W98iyl/GA9mWXXRYPubdf78kaxN26eMg93myYP6j0t3/7t60PbMXzXvH4VDy33nq4eCS8w2crxC4xgPjghtZdon3sFWtihLGQf8xBdP4Hf/AHrS07LEdCinATcSc+C7S9WfYcVdxCzTbFjLLH1fOW8TRbh2HnzaYt/OM//mNEq3j3wG/8xm/Ew/WRdONjHaa18ZIAgRoJuIJVo2IZKoFqBeL3ejx+FI9ax6cDxJNAcSEn3kgYj2bHBa34XIZIM9/73vfikwtiEHF9JT7LID6nND5SIR4Jj+QU74aLD3Ho8GmicYUs3hwXfcbTRfEQfcSdeMdcXGHKphTPicenLUSbeBY+HjOPi2dxuSuefP/93//9eAB/o9OO0cZlpPhwrPiwq3giPkLeN7/5zXg7ZDxrHx8TevTRR8f1sBhnvIzY9+d//ud5tttob9NWxoc1xM+0ldnLGF7cFoz+Y8Ax/ssvvzzyaGsSjcFEsPvgBz8Yt1NjU3wEw0b7aV0ZoTbeARDPqF1wwQWx/v3vf39cJ4tPrIgZRVxrbWmZAIHaCNTufY8GTIDA4ALZRZevf/3rrV3FZZ647xY/2acJxJNAv/zLv7zttttG3IkH2yPKRHzJ28fWiD7xGZ7xuaBx6Ss+3SDflH/kQb4mW4gEFs/CZx/OGYknIkXcOmxtE5fBIp3EXcJFixZFtovnqx566KGsQbSMfNbaOJbjTY7x2VeRYyLxRKiKD5KIi0DPPvts1ize+RiXoOLzDuLZ81iIT9WKv5dj4tM6yV5uaszZ1mkf0xDB7pWvfGVMPC7axW3EeItA9Jx/4MLDDz8cQ40pxMrs8xo2qp2tzPY666yz4sJYXMTKx3b77bdn74LM11ggQKBeArNiuLUJgwZKgAABAgQIEKiDgGew6lAlYyRAgAABAgRqJSBg1apcBkuAAAECBAjUQUDAqkOVjJEAAQIECBColYCAVatyGSwBAgQIECBQBwEBqw5VMkYCBAgQIECgVgICVq3KZbAECBAgQIBAHQQErDpUyRgJECBAgACBWgkIWLUql8ESIECAAAECdRAQsEalSvHNJPGp0PHZ0AcffHB8y9uoDKuh44ivZDnwwAPjs7bjm0yOOeaY4l8D3FCPGZ3Whz/84fiyv/jSvRk9anoHW7NmzZvf/OYtt9wyPhk/PhY/Pho+PYOZm3F8C8J73/veXXfdNbTjuxDiWzV9iPfM6Y/qkQSskajMZz7zmXe+853x5bJ33nnnPvvsc+SRRz766KMjMbKGDiK+Rve00077h3/4h/jK4f/5n/+Jb5eLb7Jr6FxHa1rx5TzxHdLxPTOjNazGjWbt2rXxVYzxHUdf+MIX4ku1f/d3f3fx4sWNm+UITSi+MSm+gDK+ovs73/lOLH/kIx8p/uXiIzQNQylVwFfllMrZb2dx1SouqMT/nNHB5OTkkiVLTj/99Pie2n77s18PAo899lhcx4rIddhhh/Wwm6a9C8RXI++3336f+MQn4ouQ991334svvrj3PuxRSCD+9vjqV7/6la98pVBrjQYWiG/q3Gabbf7oj/4o6+mNb3xjXMr69Kc/PXDHOqixgCtYwy9efDftHXfcccQRR2RDmT17dizfeuutwx9ZGiNYt25dTHSLLbZIY7rDnGVcNYxvQc5P9WEOpenHjq+jPuCAA4499tj4x8OrXvWqyy+/vOkzHvL84ovGb7zxxvvuuy/Gcffdd99yyy2vf/3rhzwmhx+2wNxhD8DxX/L444/H/fv4109uEcv33HNP/tJCdQJxvTAeBoqbKUuXLq3uKHoOgWuvvTbugMctQhozIPDAAw/EHat48OA973lPmJ9xxhnz5s078cQTZ+DQaR4iLhlOTEzsvvvuc+bMib/PL7jgghNOOCFNCrPOBQSsnMJCigJxTeVb3/pW/HMzxcnP4JxXr179jne8I554i7dxzOBh0z1U/MshrmB96EMfCoK4ghUn+aWXXipgVXdCXHfddVddddXVV1+91157feMb34h/tm2//fbAqwOvRc8C1vDLtNVWW8U/eh555JF8KLG87bbb5i8tVCTw9re//YYbbrj55pt33HHHig6h20wgboLH+zbiAazsZfwTP9jjocP169fHyU+pdIHttttuzz33zLvdY489PvvZz+YvLZQucM4558RFrDe96U3Rc7xn88EHH4y3KgtYpTvXq0PPYA2/XnHpfv/994/799lQ4p+esfzqV796+CNr7gjiHdSRrq6//vqbbrop3lnd3ImOysxe+9rXfvOb34x/2Wc/cXElbqDEsnRVUYXirnfrh4/Es0E777xzRcfSbQg8/fTT8fhsThEndvxNnr+0kKaAK1gjUfd4VCL+rRO/dQ466KB4a1V8ZMDJJ588EiNr6CDizmBczP/c5z4XH4X18MMPxyzHx8fjXT8Nne7wpxXOrU+5LVy4MD6fqXXN8IfYrBGcddZZ8dh13CI87rjj4nP1Lnv+p1lTHK3ZHH300fHc1U477RS3CO+6666LLrrolFNOGa0hGs2MC/iYhhkn38QB43bJ7/zO78Qv+3j7+kc/+tH44IZNNLS6BIH4oMtpvVxxxRUnnXTStJVeViSwbNkyH9NQkW3ebdz+Xr58+f333x/XaOOfcKeeemq+yULpAk8++WR80GhcFI9b4fH01fHHH3/uuefG3YnSD6TDGgkIWDUqlqESIECAAAEC9RB48Z5xPcZrlAQIECBAgACBkRcQsEa+RAZIgAABAgQI1E1AwKpbxYyXAAECBAgQGHkBAWvkS2SABAgQIECAQN0EBKy6Vcx4CRAgQIAAgZEXELBGvkQGSIAAAQIECNRNQMCqW8WMlwABAgQIEBh5AQFrhEoU38t23nnnxZ8jNKZGDwX4DJcXOPAZFpj5wznJZ958ZI/og0ZHqDQTExPxhS3r1q0bGxsboWE1dyjAZ7i2wIHPsMDMH85JPvPmI3tEV7BGtjQGRoAAAQIECNRVQMCqa+WMmwABAgQIEBhZgbkjO7LRHNjk5ORDDz20aNGi9m8LHnzAcW05Osn+HLw3PXQVAN6VqNwGwMv17Nob8K5EpTdg3k46NTUVX4Yd34E9e3Za13Q8g9V+MnRa873vfW/JkiWdWthGgAABAgQI/KDA6tWrd9xxxx9c1/BXrmD1VuC4dhU7xIniOfTe4LQmQIAAgSQF4qpeXJjIfnsmBSBg9Vbu7M5gpCsBqzc4rQkQIEAgYYEqnqsZcc60boiOeDEMjwABAgQIEGiGgIDVjDqaBQECBAgQIDBCAgLWCBXDUAgQIECAAIFmCAhYzaijWRAgQIAAAQIjJCBgjVAxDIUAAQIECBBohoCA1Yw6mgUBAgQIECAwQgIC1ggVw1AIECBAgACBZggIWM2oo1kQIECAAAECIyQgYI1QMQyFAAECBAgQaIaAgNWMOpoFAQIECBAgMEICAtYIFcNQCBAgQIAAgWYICFjNqKNZECBAgAABAiMkIGCNUDEMhQABAgQIEGiGgIDVjDqaBQECBAgQIDBCAgLWCBXDUAgQIECAAIFmCAhYzaijWRAgQIAAAQIjJCBgjVAxDIUAAQIECBBohoCA1Yw6mgUBAgQIECAwQgIC1ggVw1AIECBAgACBZggIWM2oo1kQIECAAAECIyQgYI1QMQyFAAECBAgQaIaAgNWMOpoFAQIECBAgMEICAtYIFcNQCBAgQIAAgWYICFgv+fjHP77LLrtsttlmBx988G233daMupoFAQIECBAgMESB1APWZz7zmXe+853ve9/77rzzzn322efII4989NFHh1gPhyZAgAABAgQaIJB6wLroootOPfXUk08+ec8997z00ktf+tKXfupTn2pAXU2BAAECBAgQGKJA0gHr2WefveOOO4444oisALNnz47lW2+9dYj1cGgCBAgQIECgAQJzGzCHvqfw+OOPP/fcc9tss03eQyzfc889+ctsYf3zP9nyxMTEtK1eEiBAgAABAgSmCSR9BWuaxaZerlixYvyFnyVLlmyqmfUECBAgQIAAgUwg6YC11VZbzZkz55FHHsnPhljedttt85fZwvLly9e98LN69eppW70kQIAAAQIECEwTSDpgzZs3b//997/xxhszlMnJyVh+9atfPc1o/vz5Yy0/07Z6SYAAAQIECBCYJpD0M1hhEZ/RcOKJJx5wwAEHHXTQxRdf/NRTT8U7CqcZeUmAAAECBAgQ6Ekg9YD1i7/4i4899ti555778MMP77vvvl/84hdbn3nviVJjAgQIECBAgEAmMGtqaopFcYF4F2E87x5PZMU9w+J7aUmAAAECBNIUSPb3ZtLPYKV5rps1AQIECBAgULWAgFW1sP4JECBAgACB5AQErORKbsIECBAgQIBA1QICVtXC+idAgAABAgSSExCwkiu5CRMgQIAAAQJVCwhYVQvrnwABAgQIEEhOQMBKruQmTIAAAQIECFQtIGBVLax/AgQIECBAIDkBASu5kpswAQIECBAgULWAgFW1sP4JECBAgACB5AQErORKbsIECBAgQIBA1QICVtXC+idAgAABAgSSExCwkiu5CRMgQIAAAQJVCwhYVQvrnwABAgQIEEhOQMBKruQmTIAAAQIECFQtIGBVLax/AgQIECBAIDkBASu5kpswAQIECBAgULWAgFW1sP4JECBAgACB5AQErORKbsIECBAgQIBA1QICVtXC+idAgAABAgSSExCwkiu5CRMgQIAAAQJVCwhYVQvrnwABAgQIEEhOQMBKruQmTIAAAQIECFQtIGBVLax/AgQIECBAIDkBASu5kpswAQIECBAgULWAgFW1sP4JECBAgACB5AQErORKbsIECBAgQIBA1QICVtXC+idAgAABAgSSExCwkiu5CRMgQIAAAQJVCwhYVQvrnwABAgQIEEhOQMBKruQmTIAAAQIECFQtIGBVLax/AgQIECBAIDkBASu5kpswAQIECBAgULWAgFW1sP4JECBAgACB5AQErORKbsIECBAgQIBA1QICVtXC+idAgAABAgSSExCwkiu5CRMgQIAAAQJVCwhYVQvrnwABAgQIEEhOQMBKruQmTIAAAQIECFQtIGBVLax/AgQIECBAIDkBASu5kpswAQIECBAgULWAgFW1sP4JECBAgACB5AQErORKbsIECBAgQIBA1QICVtXC+idAgAABAgSSExCwkiu5CRMgQIAAAQJVCwhYVQvrnwABAgQIEEhOQMBKruQmTIAAAQIECFQtIGBVLax/AgQIECBAIDkBASu5kpswAQIECBAgULWAgFW1sP4JECBAgACB5AQErORKbsIECBAgQIBA1QICVtXC+idAgAABAgSSE5ib3IxNmMDzAmueeGbtU89mGIsXztth8wVgCBAgQIBAWQICVlmS+qmTQKSrw1euWr9hMhv0/Lmzbzp7mYxVpxIaKwECBEZbwC3C0a6P0VUjENeu8nQVR4jl/GpWNQfUKwECBAikJSBgpVVvsyVAgAABAgRmQEDAmgFkhyBAgAABAgTSEhCw0qq32WYC8VR7PHeVa8RyrMlfWiBAgAABAgMKeMh9QEC711IgnmePp9rz5668i7CWVTRoAgQIjLCAgDXCxTG0KgUiY3nbYJXA+iZAgEDSAi/eJUmaweQJECBAgAABAuUJCFjlWeqJAAECBAgQIPC8gIDlRCBAgAABAgQIlCwgYJUMqjsCBAgQIECAgIDlHCBAgAABAgQIlCwgYJUMqjsCBAgQIECAgIDlHCBAgAABAgQIlCwgYJUMqjsCBAgQIECAgIDlHCBAgAABAgQIlCwgYJUMqjsCBAgQIECAgIDlHCBAgAABAgQIlCwgYJUMqjsCBAgQIECAgIDlHCBAgAABAgQIlCwgYJUMqjsCBAgQIECAgIDlHCBAgAABAgQIlCwgYJUMqjsCBAgQIECAgIDlHCBAgAABAgQIlCwgYJUMqjsCBAgQIECAgIDlHCBAgAABAgQIlCwgYJUMqjsCBAgQIECAgIDlHCBAgAABAgQIlCwgYJUMqjsCBAgQIECAgIDlHCBAgAABAgQIlCwgYJUMqjsCBAgQIECAgIDlHCBAgAABAgQIlCwgYJUMqjsCBAgQIECAgIDlHCBAgAABAgQIlCwgYJUMqjsCBAgQIECAgIDlHCBAgAABAgQIlCwgYJUMqjsCBAgQIECAgIDlHCBAgAABAgQIlCwgYJUMqjsCBAgQIECAgIDlHCBAgAABAgQIlCwgYJUMqjsCBAgQIECAgIDlHCBAgAABAgQIlCwgYJUMqjsCBAgQIECAgIDlHCBAgAABAgQIlCwgYJUMqjsCBAgQIECAgIDlHCBAgAABAgQIlCwgYJUMqjsCBAgQIECAgIDlHCBAgAABAgQIlCwgYJUMqjsCBAgQIECAgIDlHCBAgAABAgQIlCwgYJUMqjsCBAgQIECAgIDlHCBAgAABAgQIlCwgYJUMqjsCBAgQIECAgIDlHCBAgAABAgQIlCwgYJUMqjsCBAgQIECAgIDlHCBAgAABAgQIlCwgYJUMqjsCBAgQIECAgIDlHCBAgAABAgQIlCwgYJUMqjsCBAgQIECAgIDlHCBAgAABAgQIlCyQesBasWLFgQceuGjRoq233vqYY4659957SwbWHQECBAgQIJCewNz0pvwDM/7yl7982mmnRcbasGHDe97znte97nXf/va3Fy5c+AONvNi0wJonnln71LPZ9sUL5+2w+YJNt7UlaQGnStLlN3kC6QnMmpqaSm/WG5/xY489FtexInIddthhG2/xkpdMTEyMj4+vW7dubGxsU23SWR+/Mg9fuWr9hslsyvPnzr7p7GUyVjonQPGZOlWKW2lJoGECyf7eTP0KVut5HLEpXm6xxRatK2N5/fM/2co4UaZtTfllXLvK09X/QW2YjDUCVsqnxKbm7lTZlIz1BAg0VSD1Z7Dyuk5OTp555pmHHnro0qVL85XZQjynFVetsp8lS5ZM2+olAQIECBAgQGCagID1/yDxJNa3vvWta6+9dhpQvFy+fHlc3Mp+Vq9e3d7AGgIECBAgQIBAq4BbhP+n8fa3v/2GG264+eabd9xxx1adbHn+8z/t662Jp9rjuav8LmEsxxosBNoFnCrtJtYQINBsgdQfco9n/E8//fTrr79+1apVu+22W9diJ/uw3qZkvDVsUzLWTxNwqkwD8ZJAIgLJ/t5M/QpW3Bm8+uqrP/e5z8VHYT388MNxusezVgsW+KyBov/jxyPtnmovipV2O6dK2vU3ewLJCaR+BWvWrFnTan7FFVecdNJJ01bmL5NN4rmABQIECBAgUFwg2d+bqV/B8jFgxf8n0ZIAAQIECBAoKOBdhAWhNCNAgAABAgQIFBUQsIpKaUeAAAECBAgQKCggYBWE0owAAQIECBAgUFRAwCoqpR0BAgQIECBAoKCAgFUQSjMCBAgQIECAQFEBAauolHYECBAgQIAAgYICAlZBKM0IECBAgAABAkUFBKyiUtoRIECAAAECBAoKCFgFoTQjQIAAAQIECBQVELCKSmlHgAABAgQIECgoIGAVhNKMAAECBAgQIFBUQMAqKqUdAQIECBAgQKCggIBVEEozAgQIECBAgEBRAQGrqJR2BAgQIECAAIGCAgJWQSjNCBAgQIAAAQJFBQSsolLaESBAgAABAgQKCghYBaE0I0CAAAECBAgUFRCwikppR4AAAQIECBAoKCBgFYTSjAABAgQIECBQVEDAKiqlHQECBAgQIECgoICAVRBKMwIECBAgQIBAUQEBq6iUdgQIECBAgACBggICVkEozQgQIECAAAECRQUErKJS2hEgQIAAAQIECgoIWAWhNCNAgAABAgQIFBUQsIpKaUeAAAECBAgQKCggYBWE0owAAQIECBAgUFRAwCoqpR0BAgQIECBAoKCAgFUQSjMCBAgQIECAQFEBAauolHYECBAgQIAAgYICAlZBKM0IECBAgAABAkUFBKyiUtoRIECAAAECBAoKCFgFoTQjQIAAAQIECBQVELCKSmlHgAABAgQIECgoIGAVhNKMAAECBAgQIFBUQMAqKqUdAQIECBAgQKCggIBVEEozAgQIECBAgEBRAQGrqJR2BAgQIECAAIGCAgJWQSjNCBAgQIAAAQJFBQSsolLaESBAgAABAgQKCghYBaE0I0CAAAECBAgUFRCwikppR4AAAQIECBAoKCBgFYTSjAABAgQIECBQVEDAKiqlHQECBAgQIECgoICAVRBKMwIECBAgQIBAUQEBq6iUdgQIECBAgACBggICVkEozQgQIECAAAECRQUErKJS2hEgQIAAAQIECgoIWAWhNCNAgAABAgQIFBUQsIpKaUeAAAECBAgQKCggYBWE0owAAQIECBAgUFRAwCoqpR0BAgQIECBAoKDA3ILtNCNAgMAgAmueeGbtU89mPSxeOG+HzRcM0ttM7lvfkc+kkmMRIDBNQMCaBuIlAQLlC0RGOXzlqvUbJrOu58+dfdPZy2qRseo78vKrqEcCBHoRcIuwFy1tCRDoSyCuXeXpKjqI5fxqVl/9zdxO9R35zBk5EgECGxMQsDamYh0BAgQIECBAYAABAWsAPLsSIECAAAECBDYmIGBtTMU6AgRKFYin2uO5q7zLWI41+ctRXqjvyEdZ1dgIpCAwa2pqKoV5ljXHiYmJ8fHxdevWjY2NldWnfgikIFDf9+LVd+QpnFfmOPoCyf7e9C7C0T85jZBAEwTiPYO1eNtgu3V9R94+F2sIEJgxgRcv2s/YIR2IAAECBAgQINBsAQGr2fU1OwIECBAgQGAIAgLWENAdkgABAgQIEGi2gIDV7PqaHQECBAgQIDAEAQFrCOgOSYAAAQIECDRbQMBqdn3NjgABAgQIEBiCgIA1BHSHJECAAAECBJotIGA1u75mR4AAAQIECAxBQMAaArpDEiBAgAABAs0WELCaXV+zI0CAAAECBIYgIGANAd0hCRAgQIAAgWYLCFjNrq/ZESBAgAABAkMQELCGgO6QBAgQIECAQLMFBKxm19fsCBAgQIAAgSEICFhDQHdIAgQIECBAoNkCAlaz62t2BAgQIECAwBAEBKwhoDskAQIECBAg0GwBAavZ9TU7AgQIECBAYAgCAtYQ0B2SAAECBAgQaLaAgNXs+podAQIECBAgMAQBAWsI6A5JgAABAgQINFtAwGp2fc2OAAECBAgQGIKAgDUEdIckQIAAAQIEmi0gYDW7vmZHgAABAgQIDEFAwBoCukMSIECAAAECzRYQsJpdX7MjQIAAAQIEhiAgYA0B3SEJECBAgACBZgsIWM2ur9kRIECAAAECQxAQsIaA7pAECBAgQIBAswUErGbX1+wIECBAgACBIQgIWENAd0gCBAgQIECg2QICVrPra3YECBAgQIDAEAQErCGgOyQBAgQIECDQbAEBq9n1NTsCBAgQIEBgCAIC1hDQHZIAAQIECBBotoCA1ez6mh0BAgQIECAwBAEBawjoDkmAAAECBAg0W0DAanZ9zY4AAQIECBAYgoCANQR0hyRAgAABAgSaLSBgNbu+ZkeAAAECBAgMQUDAGgK6QxIgQIAAAQLNFhCwml1fsyNAgAABAgSGICBgDQHdIQkQIECAAIFmCwhYza6v2REgQIAAAQJDEBCwhoDukAQIECBAgECzBQSsZtfX7AgQIECAAIEhCAhYQ0B3SAIECBAgQKDZAgJWs+trdgQIECBAgMAQBASsIaA7JAECBAgQINBsAQGr2fU1OwIECBAgQGAIAgLWENAdkgABAgQIEGi2gIDV7PqaHQECBAgQIDAEAQHr/9E//OEPz5o168wzzxxCERySAAECBAgQaJbA3GZNp8/ZfP3rX//kJz/5yle+ss/97VZDgTVPPLP2qWezgS9eOG+HzRfUZRL1HXldhJsxTudJM+poFvUVELBe8v3vf/+EE064/PLLP/jBD9a3kEbek0D87jl85ar1GyazvebPnX3T2ctqkbHqO/KeCqTxgALOkwEB7U5gcAG3CF9y2mmnHXXUUUccccSmNNevXz/R8rOpZtbXSCCuXeXpKoYdy/nVrBGfRX1HPuKwDRue86RhBTWdOgqkfgXr2muvvfPOO+MWYYfirVix4v3vf3+HBjYRIECAAAECBFoFkr6CtXr16ne84x1XXXXVZptt1ooybXn58uXrXviJXaZt9ZIAAQIECBAgME0g6StYd9xxx6OPPrrffvtlKM8999zNN9/8sY99LO4JzpkzJ5ea//xP/tJCAwTiqfZ47iq/SxjLsaYW86rvyGvB25hBOk8aU0oTqa/ArKmpqfqOfsCRP/nkkw8++GDeycknn7z77ru/613vWrp0ab5y2kI8izU+Ph7Xs8bGxqZt8rJeAvV9j1V9R16vM6Tuo3We1L2CjRl/sr83k76CtWjRotYstXDhwi233LJ1TWPObxNpF4j3DNbibYNNGnn7XKypTqC+Z3h1JnomMJMCST+DNZPQjkWAAAECBAikI5D0FaxpZV61atW0NV4SIECAAAECBPoQcAWrDzS7ECBAgAABAgQ6CQhYnXRsI0CAAAECBAj0ISBg9YFmFwIECBAgQIBAJwEBq5OObQQIECBAgACBPgQErD7Q7EKAAAECBAgQ6CQgYHXSsY0AAQIECBAg0IeAgNUHml0IECBAgAABAp0EBKxOOrYRIECAAAECBPoQELD6QLMLAQIECBAgQKCTgIDVScc2AgQIECBAgEAfAgJWH2h2IUCAAAECBAh0EhCwOunYRoAAAQIECBDoQ0DA6gPNLgQIECBAgACBTgICVicd2wgQIECAAAECfQgIWH2g2YUAAQIECBAg0ElAwOqkYxsBAgQIECBAoA8BAasPNLsQIECAAAECBDoJCFiddGwjQIAAAQIECPQhIGD1gWYXAgQIECBAgEAnAQGrk45tBAgQIECAAIE+BASsPtDsQoAAAQIECBDoJCBgddKxjQABAgQIECDQh4CA1QeaXQgQIECAAAECnQQErE46thEgQIAAAQIE+hAQsPpAswsBAgQIECBAoJOAgNVJxzYCBAgQIECAQB8CAlYfaHYhQIAAAQIECHQSELA66dhGgAABAgQIEOhDQMDqA80uBAgQIECAAIFOAgJWJx3bCBAgQIAAAQJ9CAhYfaDZhQABAgQIECDQSUDA6qRjGwECBAgQIECgDwEBqw80uxAgQIAAAQIEOgkIWJ10bCNAgAABAgQI9CEgYPWBZhcCBAgQIECAQCcBAauTjm0ECBAgQIAAgT4EBKw+0OxCgAABAgQIEOgkIGB10rGNAAECBAgQINCHgIDVB5pdCBAgQIAAAQKdBASsTjq2ESBAgAABAgT6EBCw+kCzCwECBAgQIECgk4CA1UnHNgIECBAgQIBAHwICVh9odiFAgAABAgQIdBIQsDrp2EaAAAECBAgQ6ENAwOoDzS4ECBAgQIAAgU4CAlYnHdsIECBAgAABAn0ICFh9oNmFAAECBAgQINBJQMDqpGMbAQIECBAgQKAPAQGrDzS7ECBAgAABAgQ6CQhYnXRsI0CAAAECBAj0ISBg9YFmFwIECBAgQIBAJwEBq5OObQQIECBAgACBPgTm9rGPXQgQGKLAmieeWfvUs9kAFi+ct8PmC4Y4GIcmULqAM7x0Uh0ORUDAGgq7gxLoUyB+9xy+ctX6DZPZ/vPnzr7p7GUyVp+adhs9AWf46NXEiPoUcIuwTzi7ERiKQFy7ytNVDCCW86tZQxmPgxIoV8AZXq6n3oYoIGANEd+hCRAgQIAAgWYKCFjNrKtZESBAgAABAkMUELCGiO/QBHoWiKfa47mrfLdYjjX5SwsE6i7gDK97BY0/F5g1NTWVv7DQVWBiYmJ8fHzdunVjY2NdG2tAoAoB77GqQlWfoyPgDB+dWpQykmR/b3oXYSnnj04IzJxAvGfQ2wZnjtuRZlzAGT7j5A5YicCL9xoq6V6nBAgQIECAAIH0BASs9GpuxgQIECBAgEDFAgJWxcC6J0CAAAECBNITELDSq7kZEyBAgAABAhULCFgVA+ueAAECBAgQSE9AwEqv5mZMgAABAgQIVCwgYFUMrHsCBAgQIEAgPQEBK72amzEBAgQIECBQsYCAVTGw7gkQIECAAIH0BASs9GpuxgQIECBAgEDFAgJWxcC6J0CAAAECBNITELDSq7kZEyBAgAABAhULCFgVA+ueAAECBAgQSE9AwEqv5mZMgAABAgQIVCwgYFUMrHsCBAgQIEAgPQEBK72amzEBAgQIECBQsYCAVTGw7gkQIECAAIH0BASs9GpuxgQIECBAgEDFAgJWxcC6J0CAAAECBNITELDSq7kZEyBAgAABAhULCFgVA+ueAAECBAgQSE9AwEqv5mZMgAABAgQIVCwgYFUMrHsCBAgQIEAgPQEBK72amzEBAgQIECBQsYCAVTGw7gkQIECAAIH0BASs9GpuxgQIECBAgEDFAgJWxcC6J0CAAAECBNITELDSq7kZEyBAgAABAhULCFgVA+ueAAECBAgQSE9AwEqv5mZMgAABAgQIVCwgYFUMrHsCBAgQIEAgPQEBK72amzEBAgQIECBQsYCAVTGw7gkQIECAAIH0BASs9GpuxgQIECBAgEDFAgJWxcC6J0CAAAECBNITELDSq7kZEyBAgAABAhULCFgVA+ueAAECBAgQSE9AwEqv5mZMgAABAgQIVCwgYFUMrHsCBAgQIEAgPQEBK72amzEBAgQIECBQsYCAVTGw7gkQIECAAIH0BASs9GpuxgQIECBAgEDFAgJWxcC6J0CAAAECBNITELDSq7kZEyBAgAABAhULCFgVA+ueAAECBAgQSE9AwEqv5mZMgAABAgQIVCwgYFUMrHsCBAgQIEAgPQEBK72amzEBAgQIECBQsYCAVTGw7gkQIECAAIH0BASs9GpuxgQIECBAgEDFAgJWxcC6J0CAAAECBNITELDSq7kZEyBAgAABAhULpB6w1qxZ8+Y3v3nLLbdcsGDB3nvvffvtt1cMrnsCBAgQIECg+QJzmz/FTc9w7dq1hx566Gte85ovfOELL3vZy+6///7FixdvurktBAj0L7DmiWfWPvVstv/ihfN22HxB/33Zk8BICjjJR7IsQxtU0gHrwgsvXLJkyRVXXJHx77rrrkOrgwMTaLRA/OI5fOWq9Rsms1nOnzv7prOXyViNrnlyk3OSJ1fybhNO+hbh5z//+QMOOODYY4/deuutX/WqV11++eUb5Vq/fv1Ey89G21hJgEAHgbh2laeraBbL+dWsDnvZRKBGAk7yGhVrZoaadMB64IEHLrnkkt122+1LX/rS2972tjPOOOPKK69sd1+xYsX4Cz9xxau9gTUECBAgQIAAgVaBpAPW5OTkfvvt96EPfSguX731rW899dRTL7300ladbHn58uXrXvhZvXp1ewNrCBAgQIAAAQKtAkkHrO22227PPffMOfbYY4/vfve7+ct8Yf78+WMtP/l6CwQIFBSIp9rjuau8cSzHmvylBQINEHCSN6CI5U4h6Yfc4y2E9957bw5633337bzzzvlLCwQIlCUQz7PHU+35c1feRVgWrH5GR8BJPjq1GJGRJB2wzjrrrEMOOSRuER533HG33XbbZc//jEhhDINAwwTi14+3DTaspqYzTcBJPg0k8ZcvXrRPEOLAAw+8/vrrr7nmmqVLl55//vkXX3zxCSeckKCDKRMgQIAAAQLlCsyampoqt8dm9xYf1xBvKIxH3uOhrGbP1OwIECBAgMDgAsn+3kz6Ctbg540eCBAgQIAAAQLtAgJWu4k1BAgQIECAAIGBBASsgfjsTIAAAQIECBBoFxCw2k2sIUCAAAECBAgMJCBgDcRnZwIECBAgQIBAu4CA1W5iDQECBAgQIEBgIAEBayA+OxMgQIAAAQIE2gUErHYTawgQIECAAAECAwkIWAPx2ZkAAQIECBAg0C4gYLWbWEOAAAECBAgQGEhAwBqIz84ECBAgQIAAgXYBAavdxBoCBAgQIECAwEACAtZAfHYmQIAAAQIECLQLCFjtJtYQIECAAAECBAYSELAG4rMzAQIECBAgQKBdQMBqN7GGAAECBAgQIDCQgIA1EJ+dCRAgQIAAAQLtAgJWu4k1BAgQIECAAIGBBASsgfjsTIAAAQIECBBoFxCw2k2sIUCAAAECBAgMJCBgDcRnZwIECBAgQIBAu4CA1W5iDQECBAgQIEBgIAEBayA+OxMgQIAAAQIE2gUErHYTawgQIECAAAECAwkIWAPx2ZkAAQIECBAg0C4gYLWbWEOAAAECBAgQGEhAwBqIz84ECBAgQIAAgXYBAavdxBoCBAgQIECAwEACAtZAfHYmQIAAAQIECLQLCFjtJtYQIECAAAECBAYSELAG4rMzAQIECBAgQKBdQMBqN7GGAAECBAgQIDCQgIA1EJ+dCRAgQIAAAQLtAgJWu4k1BAgQIECAAIGBBASsgfjsTIAAAQIECBBoFxCw2k2sIUCAAAECBAgMJCBgDcRnZwIECBAgQIBAu4CA1W5iDQECBAgQIEBgIAEBayA+OxMgQIAAAQIE2gUErHYTawgQIECAAAECAwkIWAPx2ZkAAQIECBAg0C4gYLWbWEOAAAECBAgQGEhAwBqIz84ECBAgQIAAgXYBAavdxBoCBAgQIECAwEACAtZAfHYmQIAAAQIECLQLCFjtJtYQIECAAAECBAYSELAG4rMzAQIECBAgQKBdQMBqN7GGAAECBAgQIDCQgIA1EJ+dCRAgQIAAAQLtAgJWu4k1BAgQIECAAIGBBASsgfjsTIAAAQIECBBoFxCw2k2sIUCAAAECBAgMJDB3oL3tTIAAgaYLrHnimbVPPZvNcvHCeTtsvqDpMza/PgVqeqrUdNh9FmkGdxOwZhDboQgQqJtA/O45fOWq9Rsms4HPnzv7prOXyVh1K+NMjLemp0pNhz0TFR34GG4RDkyoAwIEmisQ167ydBWzjOX8alZzJ21m/QjU9FSp6bD7qdCM7yNgzTi5AxIgQIAAAQJNFxCwml5h8yNAgAABAgRmXEDAmnFyByRAoD4C8VR7PHeVjzeWY03+0gKBXKCmp0pNh52zj/LCrKmpqVEe36iNbWJiYnx8fN26dWNjY6M2NuMhQKAKAe+xqkK1kX3W9FSpetjJ/t70LsJG/m9uUgQIlCYQ7xn0tsHSNBvdUU1PlZoOe/RPpRcvfY/+WI2QAAECBAgQIFALAQGrFmUySAIECBAgQKBOAgJWnaplrAQIECBAgEAtBASsWpTJIAkQIECAAIE6CQhYdaqWsRIgQIAAAQK1EBCwalEmgyRAgAABAgTqJCBg1alaxkqAAAECBAjUQkDAqkWZDJIAAQIECBCok4CAVadqGSsBAgQIECBQCwEBqxZlMkgCBAgQIECgTgICVp2qZawECBAgQIBALQQErFqUySAJECBAgACBOgkIWHWqlrESIECAAAECtRAQsGpRJoMkQIAAAQIE6iQgYNWpWsZKgAABAgQI1EJAwKpFmQySAAECBAgQqJOAgFWnahkrAQIECBAgUAsBAasWZTJIAgQIECBAoE4CAladqmWsBAgQIECAQC0EBKxalMkgCRAgQIAAgToJCFh1qpaxEiBAgAABArUQELBqUSaDJECAAAECBOokIGDVqVrGSoAAAQIECNRCQMCqRZkMkgABAgQIEKiTgIBVp2oZKwECBAgQIFALAQGrFmUySAIECBAgQKBOAgJWnaplrAQIECBAgEAtBASsWpTJIAkQIECAAIE6CQhYdaqWsRIgQIAAAQK1EBCwalEmgyRAgAABAgTqJCBg1alaxkqAAAECBAjUQkDAqkWZDJIAAQIECBCok4CAVadqGSsBAgQIECBQCwEBqxZlMkgCBAgQIECgTgICVp2qZawECBAgQIBALQQErFqUySAJECBAgACBOgkIWHWqlrESIECAAAECtRAQsGpRJoMkQIAAAQIE6iQgYNWpWsZKgAABAgQI1EJAwKpFmQySAAECBAgQqJOAgFWnahkrAQIECBAgUAsBAasWZTJIAgQIECBAoE4CAladqmWsBAgQIECAQC0EBKxalMkgCRAgQIAAgToJCFh1qpaxEiBAgAABArUQELBqUSaDJECAAAECBOokIGDVqVrGSoAAAQIECNRCQMCqRZkMkgABAgQIEKiTgIBVp2oZKwECBAgQIFALAQGrFmUySAIECBAgQKBOAgJWnaplrAQIECBAgEAtBASsWpTJIAkQIECAAIE6CSQdsJ577rn3vve9u+6664IFC17+8peff/75U1NTdaqesRIgQIAAAQIjKTB3JEc1Q4O68MILL7nkkiuvvHKvvfa6/fbbTz755PHx8TPOOGOGDu8wBAgQIECAQEMFkg5YX/va197whjccddRRUdxddtnlmmuuue222xpaaNMiQCAtgTVPPLP2qWezOS9eOG+HzRfUZf71HXldhKeNE/g0kLJeJh2wDjnkkMsuu+y+++57xStecffdd99yyy0XXXRRWbL6IUCAwLAE4lfm4StXrd8wmQ1g/tzZN529rBYZq74jH1atBzwu8AEBO+yedMB697vfPTExsfvuu8+ZMyeex7rgggtOOOGEdqz1z/9k66N9ewNrCBAgMFICce0qT1cxsFiONbUIWPUd+UidAMUHA7y4Va8tk37I/brrrrvqqquuvvrqO++8M57EWrlyZfzZLrhixYp4Niv7WbJkSXsDawgQIECAAAECrQJJB6xzzjknLmK96U1v2nvvvd/ylrecddZZkaVadbLl5cuXr3vhZ/Xq1e0NrCFAgAABAgQItAokfYvw6aefnj37xYgZNwonJ///kYVWo/nP/7SusUyAAIFRFoin2uO5q/wuYSzHmlEecD62+o48n0K9FoBXV6+kA9bRRx8dz13ttNNO8TENd911Vzzhfsopp1RnrWcCBAjMjEA8bhVPtcfjNdnh4pdoLR7AitHWd+QzU9nSjwK8dNK8w1kpf7Tmk08+GR80ev311z/66KPbb7/98ccff+65586b1+nfefGQezyMFTcMx8bGckQLBAgQIECAwEYFkv29mXTA2uip0HllsidKZxZbCRAgQIDARgWS/b354hNIG3WxkgABAgQIECBAoFcBAatXMe0JECBAgAABAl0EBKwuQDYTIECAAAECBHoVELB6FdOeAAECBAgQINBFQMDqAmQzAQIECBAgQKBXAQGrVzHtCRAgQIAAAQJdBASsLkA2EyBAgAABAgR6FRCwehXTngABAgQIECDQRUDA6gJkMwECBAgQIECgVwEBq1cx7QkQIECAAAECXQQErC5ANhMgQIAAAQIEehUQsHoV054AAQIECBAg0EVAwOoCZDMBAgQIECBAoFcBAatXMe0JECBAgAABAl0EBKwuQDYTIECAAAECBHoVELB6FdOeAAECBAgQINBFQMDqAmQzAQIECBAgQKBXAQGrVzHtCRAgQIAAAQJdBASsLkA2EyBAgAABAgR6FRCwehXTngABAgQIECDQRUDA6gJkMwECBAgQIECgVwEBq1cx7QkQIECAAAECXQQErC5ANhMgQIAAAQIEehUQsHoV054AAQIECBAg0EVAwOoCZDMBAgQIECBAoFcBAatXMe0JECBAgAABAl0EBKwuQDYTIECAAAECBHoVELB6FdOeAAECBAgQINBFQMDqAmQzAQIECBAgQKBXAQGrVzHtCRAgQIAAAQJdBASsLkA2EyBAgAABAgR6FRCwehXTngABAgQIECDQRUDA6gJkMwECBAgQIECgVwEBq1cx7QkQIECAAAECXQQErC5ANhMgQIAAAQIEehUQsHoV054AAQIECBAg0EVAwOoCZDMBAgQIECBAoFcBAatXMe0JECBAgAABAl0EBKwuQDYTIECAAAECBHoVELB6FdOeAAECBAgQINBFQMDqAmQzAQIECBAgQKBXAQGrVzHtCRAgQIAAAQJdBASsLkA2EyBAgAABAgR6FRCwehXTngABAgQIECDQRUDA6gJkMwECBAgQIECgVwEBq1cx7QkQIECAAAECXQQErC5ANhMgQIAAAQIEehUQsHoV054AAQIECBAg0EVAwOoCZDMBAgQIECBAoFcBAatXMe0JECBAgAABAl0EBKwup40wwgAACD1JREFUQDYTIECAAAECBHoVELB6FdOeAAECBAgQINBFYG6X7TYTIECAAIEZFFjzxDNrn3o2O+DihfN22HzBDB58oEPVd+QDTdvOmxAQsDYBYzUBAgQIzLhAZJTDV65av2EyO/L8ubNvOntZLTJWfUc+40VO5YBuEaZSafMkQIDA6AvEtas8XcVoYzm/mjXig6/vyEcctr7DE7DqWzsjJ0CAAAECBEZUQMAa0cIYFgECBAgQIFBfAQGrvrUzcgIECDRNIJ5qj+eu8lnFcqzJX47yQn1HPsqqtR7brKmpqVpPYIYHPzExMT4+vm7durGxsRk+tMMRIEAgBYH6vhevviOv9LxK9vemdxFWel7pnAABAgR6E4j3DNbibYPts6rvyNvnYs3gAi9eiR28Lz0QIECAAAECBAiEgIDlNCBAgAABAgQIlCwgYJUMqjsCBAgQIECAgIDlHCBAgAABAgQIlCwgYJUMqjsCBAgQIECAgIDlHCBAgAABAgQIlCwgYJUMqjsCBAgQIECAgIDlHCBAgAABAgQIlCwgYJUMqjsCBAgQIECAgIDlHCBAgAABAgQIlCwgYJUMqjsCBAgQIECAgIDlHCBAgAABAgQIlCwgYJUMqjsCBAgQIECAgIDlHCBAgAABAgQIlCwgYJUMqjsCBAgQIECAgIDlHCBAgAABAgQIlCwgYJUMqjsCBAgQIECAgIDlHCBAgAABAgQIlCwgYJUMqjsCBAgQIECAgIDlHCBAgAABAgQIlCwgYJUMqjsCBAgQIECAgIDlHCBAgAABAgQIlCwgYJUMqjsCBAgQIECAgIDlHCBAgAABAgQIlCwgYJUMqjsCBAgQIECAwFwEPQlMTU1F+4mJiZ720pgAAQIECKQpkP3GzH57JiUgYPVW7ieffDJ2WLJkSW+7aU2AAAECBBIWiN+e4+PjSQHMSjBUDlLgycnJhx56aNGiRbNmzRqkn43uGzE/otvq1avHxsY22sDKcgWAl+vZtTfgXYnKbQC8XM8ivTFvV4qYEelq++23nz07raeSXMFqPxk6rYnzY8cdd+zUYuBtka4ErIEVe+gAeA9YZTQFXoZiD30A7wGrpKbMp0Gmdu0qm35acXJayb0kQIAAAQIECFQhIGBVoapPAgQIECBAIGmBOeedd17SACM2+Tlz5ixbtmzuXLduZ6gwwGcI+oXDAH9BYob+C3yGoFsOw7wFI+lFD7knXX6TJ0CAAAECBKoQcIuwClV9EiBAgAABAkkLCFhJl9/kCRAgQIAAgSoEBKwqVPVJgAABAgQIJC0gYCVdfpMnQIAAAQIEqhAQsKpQ1ScBAgQIECCQtICAlXT5TZ4AAQIECBCoQkDAqkJVnwQIECBAgEDSAgJW0uU3eQIECBAgQKAKAQGrClV9EiBAgAABAkkLCFhJl9/kCRAgQIAAgSoEBKwqVPVJgAABAgQIJC0gYCVdfpMnQIAAAQIEqhAQsKpQ1ScBAgQIECCQtICAlXT5TZ4AAQIECBCoQkDAqkJVnwQIECBAgEDSAgJW0uU3eQIECBAgQKAKAQGrClV9EiBAgAABAkkLCFhJl9/kCRAgQIAAgSoEBKwqVPVJgAABAgQIJC0gYCVdfpMnQIAAAQIEqhAQsKpQ1ScBAgQIECCQtICAlXT5TZ4AAQIECBCoQkDAqkJVnwQIECBAgEDSAgJW0uU3eQIECBAgQKAKAQGrClV9EiBAgAABAkkLCFhJl9/kCRAgQIAAgSoEBKwqVPVJgAABAgQIJC0gYCVdfpMnQIAAAQIEqhAQsKpQ1ScBAgQIECCQtICAlXT5TZ4AAQIECBCoQkDAqkJVnwQIECBAgEDSAgJW0uU3eQIECBAgQKAKAQGrClV9EiBAgAABAkkLCFhJl9/kCRAgQIAAgSoEBKwqVPVJgAABAgQIJC0gYCVdfpMnQIAAAQIEqhAQsKpQ1ScBAgQIECCQtICAlXT5TZ4AAQIECBCoQkDAqkJVnwQIECBAgEDSAgJW0uU3eQIECBAgQKAKAQGrClV9EiBAgAABAkkLCFhJl9/kCRAgQIAAgSoEBKwqVPVJgAABAgQIJC0gYCVdfpMnQIAAAQIEqhAQsKpQ1ScBAgQIECCQtICAlXT5TZ4AAQIECBCoQkDAqkJVnwQIECBAgEDSAgJW0uU3eQIECBAgQKAKAQGrClV9EiBAgAABAkkLCFhJl9/kCRAgQIAAgSoEBKwqVPVJgAABAgQIJC0gYCVdfpMnQIAAAQIEqhAQsKpQ1ScBAgQIECCQtICAlXT5TZ4AAQIECBCoQkDAqkJVnwQIECBAgEDSAgJW0uU3eQIECBAgQKAKAQGrClV9EiBAgAABAkkLCFhJl9/kCRAgQIAAgSoEBKwqVPVJgAABAgQIJC0gYCVdfpMnQIAAAQIEqhAQsKpQ1ScBAgQIECCQtICAlXT5TZ4AAQIECBCoQkDAqkJVnwQIECBAgEDSAgJW0uU3eQIECBAgQKAKAQGrClV9EiBAgAABAkkLCFhJl9/kCRAgQIAAgSoEBKwqVPVJgAABAgQIJC0gYCVdfpMnQIAAAQIEqhAQsKpQ1ScBAgQIECCQtICAlXT5TZ4AAQIECBCoQkDAqkJVnwQIECBAgEDSAgJW0uU3eQIECBAgQKAKAQGrClV9EiBAgAABAkkLCFhJl9/kCRAgQIAAgSoEBKwqVPVJgAABAgQIJC0gYCVdfpMnQIAAAQIEqhAQsKpQ1ScBAgQIECCQtICAlXT5TZ4AAQIECBCoQkDAqkJVnwQIECBAgEDSAgJW0uU3eQIECBAgQKAKAQGrClV9EiBAgAABAkkL/C+YlZkYnVD2iwAAAABJRU5ErkJggg==;" vertex="1" parent="1">
          <mxGeometry x="80" y="20" width="612" height="612" as="geometry" />
        </mxCell>
        <mxCell id="vfQgxKkF1GxTrXVjqXVF-5" value="" style="rounded=0;whiteSpace=wrap;html=1;opacity=30;dashed=1;strokeWidth=3;strokeColor=#FF8000;" vertex="1" parent="1">
          <mxGeometry x="369" y="400" width="236" height="142" as="geometry" />
        </mxCell>
        <mxCell id="vfQgxKkF1GxTrXVjqXVF-9" value="" style="rounded=0;whiteSpace=wrap;html=1;opacity=30;strokeWidth=3;dashed=1;strokeColor=#00CC00;" vertex="1" parent="1">
          <mxGeometry x="228" y="168" width="288" height="190" as="geometry" />
        </mxCell>
        <mxCell id="vfQgxKkF1GxTrXVjqXVF-4" value="" style="rounded=0;whiteSpace=wrap;html=1;opacity=30;dashed=1;strokeColor=#000000;strokeWidth=3;" vertex="1" parent="1">
          <mxGeometry x="229" y="165" width="188" height="190" as="geometry" />
        </mxCell>
        <mxCell id="vfQgxKkF1GxTrXVjqXVF-7" value="" style="ellipse;whiteSpace=wrap;html=1;aspect=fixed;fillColor=#00CC00;strokeColor=#82b366;opacity=50;" vertex="1" parent="1">
          <mxGeometry x="454" y="295" width="20" height="20" as="geometry" />
        </mxCell>
        <mxCell id="vfQgxKkF1GxTrXVjqXVF-8" value="" style="ellipse;whiteSpace=wrap;html=1;aspect=fixed;fillColor=#f0a30a;strokeColor=#BD7000;opacity=30;fontColor=#000000;" vertex="1" parent="1">
          <mxGeometry x="360" y="389" width="20" height="20" as="geometry" />
        </mxCell>
        <mxCell id="vfQgxKkF1GxTrXVjqXVF-10" value="" style="rounded=0;whiteSpace=wrap;html=1;opacity=30;dashed=1;strokeWidth=3;strokeColor=#000000;" vertex="1" parent="1">
          <mxGeometry x="463" y="401" width="142" height="141" as="geometry" />
        </mxCell>
        <mxCell id="vfQgxKkF1GxTrXVjqXVF-11" value="" style="shape=image;verticalLabelPosition=bottom;labelBackgroundColor=default;verticalAlign=top;aspect=fixed;imageAspect=0;image=data:image/png,iVBORw0KGgoAAAANSUhEUgAAAyAAAAMgCAIAAABUEpE/AAAAAXNSR0IArs4c6QAAAERlWElmTU0AKgAAAAgAAYdpAAQAAAABAAAAGgAAAAAAA6ABAAMAAAABAAEAAKACAAQAAAABAAADIKADAAQAAAABAAADIAAAAADAlM0/AABAAElEQVR4AezdB5xV5Z3/caYPMzAFGKr0qkAAUbFHVJpoLKAomhhN/tnN7n8Tk2yyybYk+89utmV3k0120zfJRgQbEGygYsUKFgSU3uvINKbX/xdOcr1MObede59zn/OZly+8c+85z3me9+/OzO8+7WR0dHT04gsBBBBAAAEEEEDAO4FM74qiJAQQQAABBBBAAIHTAiRYvA8QQAABBBBAAAGPBUiwPAalOAQQQAABBBBAgASL9wACCCCAAAIIIOCxAAmWx6AUhwACCCCAAAIIkGDxHkAAAQQQQAABBDwWIMHyGJTiEEAAAQQQQAABEizeAwgggAACCCCAgMcCJFgeg1IcAggggAACCCBAgsV7AAEEEEAAAQQQ8FiABMtjUIpDAAEEEEAAAQRIsHgPIIAAAggggAACHguQYHkMSnEIIIAAAggggAAJFu8BBBBAAAEEEEDAYwESLI9BKQ4BBBBAAAEEECDB4j2AAAIIIIAAAgh4LECC5TEoxSGAAAIIIIAAAiRYvAcQQAABBBBAAAGPBUiwPAalOAQQQAABBBBAIBsCBBBAAIE0Emjv6Khuaq1qbNF/jW1tbe0dWZkZ+VlZJfk5+q84LzszIyONmkNVEbBVIKOjo8PWttEuBBBAwCaB+pbWPVX1e6vqW9pP/95WGhX69R16nJOZMbqkYExJQUEOn59tCj5tST8BEqz0ixk1RgCBoAm0tLW/V16zr7ohlEi5CDjHjCruPbWsKCeLeSAuVLyEQBIFSLCSiEvRCCCAQOICx+uaNh6tamprj7Wo/KzMmUNKBhXmxXoixyOAQOICJFiJG1ICAgggkCyB3ZV1756oSaT0aQOLxpYWJlIC5yKAQBwC9B7HgcYpCCCAQCoEEs+uVEvlZyonFdXlGgggECZAghWGwUMEEEDANwIaGUyw7yrUFJWj0kLf8gABBFIgQIKVAmQugQACCMQmoFntmncV2zmuR286WqUyXQ/hRQQQ8FKABMtLTcpCAAEEPBHQmsFm13yopbnpf//1O5+9YsYd08Z8/baF7254wf26jWfWIbofw6sIIOChAAmWh5gUhQACCHggUNfSqh0ZQntcdVvif379vjW/+ukVN9x8z1/+XWZm5t//0Sff3/R6t0eGnlSZ2kkr9C0PEEAgqQKsIkwqL4UjgAACMQtsKa/ZWVHnkmDt3Py2eq0+9dW/ufEzn1fpzU2NX7rh6uJ+/f9h+RqXi2l/rAn9CieXFbkcw0sIIOCVAD1YXklSDgIIIOCBgO6Eo73aXbIrXePVtY9lZmXNWXKXc73cvPxrFt2x/Z1NHx497FIDlamN4FW+yzG8hAACXgmQYHklSTkIIICABwK6z6BzJxyXsva+v2XoqDEFffqGjhn3sel6vPf9raFnun2gklV+ty/xJAIIeCtAguWtJ6UhgAACCQnoFs4Rz68sP1FaNij8MOfbyhPHw5/s9nE05Xd7Ik8igEBMAiRYMXFxMAIIIJBcASVAmizl/tXc2Jidmxt+TE7e6fvhaDJW+JNdH6tkEqyuLDyDQDIESLCSoUqZCCCAQJwCjW1tESdJ5ebntzY3h1+gpen0PqKajBX+ZNfHKlnld32eZxBAwHMBEizPSSkQAQQQiF+grT1iftWrtGxgZflZo4HOt6UDzxo37LYS0ZTf7Yk8iQACMQmQYMXExcEIIIBAcgWyMiOOEPYaNWnykX176mtPhaqy89239Xj0uZNDz/T0IJryezqX5xFAIHoBEqzorTgSAQQQSLpAflZWxAzrknnXt7e1Pb3it05ttKv7+pUrxk87f8CQYe71U8kq3/0YXkUAAU8Esj0phUIQQAABBDwRKMnP6aiOUNKEaedfMv+G+//9u9UVHw4eMfr5VQ+WHz74J9/5XoTTevXS6KPKj3gYByCAQOICJFiJG1ICAggg4JlAlAnQF/7p+w98f9gLv3ukrrp65MRzv/Hfv5l84cXRVCLK8qMpimMQQMBFgFvluODwEgIIIJBqAe20/viu4xH3Go2vWjmZGQvHDcrMiDgIGV/xnIUAAh8JMAfrIwseIYAAAsYFlP2MLilIRgakMseUFJBdGQ8xFQiIAAlWQAJNMxFAIG0ElAZF3qoh9taoTKVusZ/HGQggEI8ACVY8apyDAAIIJE+gICd7VHFvz8tXmSrZ82IpEAEEuhUgweqWhScRQAABkwJTy4rys7z8/azSVKbJJnFtBAIm4OUPcMDoaC4CCCCQLIGcrMyZQ0o8LF2lqUwPC6QoBBBwF+Dnzd2HVxFAAAEzAoMK86YN9KbPSeWoNDPN4KoIBFWABCuokafdCCDge4GxpYWJ51gqQeX4vq1UEAHbBNgHy7aI0h4EELBM4Hhd06ajVY1t7bG2S/OuNDJI31WsbhyPgCcCJFieMFIIAgggkESBlrb298pr9lU3aC+riDs4OMdozaBmtTPvKolRoWgEXAVIsFx5eBEBBBDwjUB9S+veqvo9VfXOPu/hyVbosfZq1zZa2u+KHRl8EzcqElABEqyABp5mI4BAmgroXjrVTa1VjS36r7Gtra29IyszIz8rSzcZ1H/Fedns1Z6mkaXalgmQYFkWUJqDAAIIIIAAAuYFWEVoPgbUAAEEEEAAAQQsEyDBsiygNAcBBBBAAAEEzAuQYJmPATVAAAEEEEAAAcsESLAsCyjNQQABBBBAAAHzAiRY5mNADRBAAAEEEEDAMgESLMsCSnMQQAABBBBAwLwACZb5GFADBBBAAAEEELBMgATLsoDSHAQQQAABBBAwL0CCZT4G1AABBBBAAAEELBMgwbIsoDQHAQQQQAABBMwLkGCZjwE1QAABBBBAAAHLBEiwLAsozUEAAQQQQAAB8wIkWOZjQA0QQAABBBBAwDIBEizLAkpzEEAAAQQQQMC8AAmW+RhQAwQQQAABBBCwTIAEy7KA0hwEEEAAAQQQMC9AgmU+BtQAAQQQQAABBCwTIMGyLKA0BwEEEEAAAQTMC5BgmY8BNUAAAQQQQAABywRIsCwLKM1BAAEEEEAAAfMCJFjmY0ANEEAAAQQQQMAyARIsywJKcxBAAAEEEEDAvAAJlvkYUAMEEEAAAQQQsEyABMuygNIcBBBAAAEEEDAvQIJlPgbUAAEEEEAAAQQsEyDBsiygNAcBBBBAAAEEzAuQYJmPATVAAAEEEEAAAcsESLAsCyjNQQABBBBAAAHzAiRY5mNADRBAAAEEEEDAMgESLMsCSnMQQAABBBBAwLwACZb5GFADBBBAAAEEELBMgATLsoDSHAQQQAABBBAwL0CCZT4G1AABBBBAAAEELBMgwbIsoDQHAQQQQAABBMwLkGCZjwE1QAABBBBAAAHLBEiwLAsozUEAAQQQQAAB8wIkWOZjQA0QQAABBBBAwDIBEizLAkpzEEAAAQQQQMC8AAmW+RhQAwQQQAABBBCwTIAEy7KA0hwEEEAAAQQQMC9AgmU+BtQAAQQQQAABBCwTIMGyLKA0BwEEEEAAAQTMC5BgmY8BNUAAAQQQQAABywRIsCwLKM1BAAEEEEAAAfMCJFjmY0ANEEAAAQQQQMAyARIsywJKcxBAAAEEEEDAvAAJlvkYUAMEEEAAAQQQsEyABMuygNIcBBBAAAEEEDAvQIJlPgbUAAEEEEAAAQQsEyDBsiygNAcBBBBAAAEEzAuQYJmPATVAAAEEEEAAAcsESLAsCyjNQQABBBBAAAHzAiRY5mNADRBAAAEEEEDAMgESLMsCSnMQQAABBBBAwLwACZb5GFADBBBAAAEEELBMgATLsoDSHAQQQAABBBAwL0CCZT4G1AABBBBAAAEELBMgwbIsoDQHAQQQQAABBMwLkGCZjwE1QAABBBBAAAHLBEiwLAsozUEAAQQQQAAB8wIkWOZjQA0QQAABBBBAwDIBEizLAkpzEEAAAQQQQMC8AAmW+RhQAwQQQAABBBCwTIAEy7KA0hwEEEAAAQQQMC9AgmU+BtQAAQQQQAABBCwTIMGyLKA0BwEEEEAAAQTMC5BgmY8BNUAAAQQQQAABywRIsCwLKM1BAAEEEEAAAfMCJFjmY0ANEEAAAQQQQMAyARIsywJKcxBAAAEEEEDAvAAJlvkYUAMEEEAAAQQQsEyABMuygNIcBBBAAAEEEDAvQIJlPgbUAAEEEEAAAQQsEyDBsiygNAcBBBBAAAEEzAuQYJmPATVAAAEEEEAAAcsESLAsCyjNQQABBBBAAAHzAiRY5mNADRBAAAEEEEDAMgESLMsCSnMQQAABBBBAwLwACZb5GFADBBBAAAEEELBMgATLsoDSHAQQQAABBBAwL0CCZT4G1AABBBBAAAEELBMgwbIsoDQHAQQQQAABBMwLkGCZjwE1QAABBBBAAAHLBEiwLAsozUEAAQQQQAAB8wIkWOZjQA0QQAABBBBAwDIBEizLAkpzEEAAAQQQQMC8AAmW+RhQAwQQQAABBBCwTIAEy7KA0hwEEEAAAQQQMC9AgmU+BtQAAQQQQAABBCwTIMGyLKA0BwEEEEAAAQTMC5BgmY8BNUAAAQQQQAABywRIsCwLKM1BAAEEEEAAAfMCJFjmY0ANEEAAAQQQQMAyARIsywJKcxBAAAEEEEDAvAAJlvkYUAMEEEAAAQQQsEyABMuygNIcBBBAAAEEEDAvQIJlPgbUAAEEEEAAAQQsEyDBsiygNAcBBBBAAAEEzAuQYJmPATVAAAEEEEAAAcsESLAsCyjNQQABBBBAAAHzAiRY5mNADRBAAAEEEEDAMgESLMsCSnMQQAABBBBAwLwACZb5GFADBBBAAAEEELBMgATLsoDSHAQQQAABBBAwL0CCZT4G1AABBBBAAAEELBMgwbIsoDQHAQQQQAABBMwLkGCZjwE1QAABBBBAAAHLBEiwLAsozUEAAQQQQAAB8wIkWOZjQA0QQAABBBBAwDIBEizLAkpzEEAAAQQQQMC8AAmW+RhQAwQQQAABBBCwTIAEy7KA0hwEEEAAAQQQMC9AgmU+BtQAAQQQQAABBCwTIMGyLKA0BwEEEEAAAQTMC5BgmY8BNUAAAQQQQAABywRIsCwLKM1BAAEEEEAAAfMCJFjmY0ANEEAAAQQQQMAyARIsywJKcxBAAAEEEEDAvAAJlvkYUAMEEEAAAQQQsEyABMuygNIcBBBAAAEEEDAvQIJlPgbUAAEEEEAAAQQsEyDBsiygNAcBBBBAAAEEzAuQYJmPATVAAAEEEEAAAcsESLAsCyjNQQABBBBAAAHzAiRY5mNADRBAAAEEEEDAMgESLMsCSnMQQAABBBBAwLwACZb5GFADBBBAAAEEELBMgATLsoDSHAQQQAABBBAwL0CCZT4G1AABBBBAAAEELBMgwbIsoDQHAQQQQAABBMwLkGCZjwE1QAABBBBAAAHLBEiwLAsozUEAAQQQQAAB8wIkWOZjQA0QQAABBBBAwDIBEizLAkpzEEAAAQQQQMC8AAmW+RhQAwQQQAABBBCwTIAEy7KA0hwEEEAAAQQQMC9AgmU+BtQAAQQQQAABBCwTIMGyLKA0BwEEEEAAAQTMC5BgmY8BNUAAAQQQQAABywRIsCwLKM1BAAEEEEAAAfMCJFjmY0ANEEAAAQQQQMAyARIsywJKcxBAAAEEEEDAvAAJlvkYUAMEEEAAAQQQsEyABMuygNIcBBBAAAEEEDAvQIJlPgbUAAEEEEAAAQQsEyDBsiygNAcBBBBAAAEEzAuQYJmPATVAAAEEEEAAAcsESLAsCyjNQQABBBBAAAHzAiRY5mNADRBAAAEEEEDAMgESLMsCSnMQQAABBBBAwLwACZb5GFADBBBAAAEEELBMgATLsoDSHAQQQAABBBAwL0CCZT4G1AABBBBAAAEELBMgwbIsoDQHAQQQQAABBMwLkGCZjwE1QAABBBBAAAHLBEiwLAsozUEAAQQQQAAB8wIkWOZjQA0QQAABBBBAwDIBEizLAkpzEEAAAQQQQMC8AAmW+RhQAwQQQAABBBCwTIAEy7KA0hwEEEAAAQQQMC9AgmU+BtQAAQQQQAABBCwTIMGyLKA0BwEEEEAAAQTMC5BgmY8BNUAAAQQQQAABywRIsCwLKM1BAAEEEEAAAfMCJFjmY0ANEEAAAQQQQMAyARIsywJKcxBAAAEEEEDAvAAJlvkYUAMEEEAAAQQQsEyABMuygNIcBBBAAAEEEDAvQIJlPgbUAAEEEEAAAQQsEyDBsiygNAcBBBBAAAEEzAuQYJmPATVAAAEEEEAAAcsESLAsCyjNQQABBBBAAAHzAiRY5mNADRBAAAEEEEDAMgESLMsCSnMQQAABBBBAwLwACZb5GFADBBBAAAEEELBMgATLsoDSHAQQQAABBBAwL0CCZT4G1AABBBBAAAEELBMgwbIsoDQHAQQQQAABBMwLkGCZjwE1QAABBBBAAAHLBEiwLAsozUEAAQQQQAAB8wIkWOZjQA0QQAABBBBAwDIBEizLAkpzEEAAAQQQQMC8AAmW+RhQAwQQQAABBBCwTIAEy7KA0hwEEEAAAQQQMC9AgmU+BtQAAQQQQAABBCwTIMGyLKA0BwEEEEAAAQTMC5BgmY8BNUAAAQQQQAABywRIsCwLKM1BAAEEEEAAAfMCJFjmY0ANEEAAAQQQQMAyARIsywJKcxBAAAEEEEDAvAAJlvkYUAMEEEAAAQQQsEyABMuygNIcBBBAAAEEEDAvQIJlPgbUAAEEEEAAAQQsEyDBsiygNAcBBBBAAAEEzAuQYJmPATVAAAEEEEAAAcsESLAsCyjNQQABBBBAAAHzAiRY5mNADRBAAAEEEEDAMgESLMsCSnMQQAABBBBAwLwACZb5GFADBBBAAAEEELBMgATLsoDSHAQQQAABBBAwL0CCZT4G1AABBBBAAAEELBMgwbIsoDQHAQQQQAABBMwLkGCZjwE1QAABBBBAAAHLBEiwLAsozUEAAQQQQAAB8wIkWOZjQA0QQAABBBBAwDIBEizLAkpzEEAAAQQQQMC8AAmW+RhQAwQQQAABBBCwTIAEy7KA0hwEEEAAAQQQMC9AgmU+BtQAAQQQQAABBCwTIMGyLKA0BwEEEEAAAQTMC5BgmY8BNUAAAQQQQAABywRIsCwLKM1BAAEEEEAAAfMCJFjmY0ANEEAAAQQQQMAyARIsywJKcxBAAAEEEEDAvAAJlvkYUAMEEEAAAQQQsEyABMuygNIcBBBAAAEEEDAvQIJlPgbUAAEEEEAAAQQsEyDBsiygNAcBBBBAAAEEzAuQYJmPATVAAAEEEEAAAcsESLAsCyjNQQABBBBAAAHzAiRY5mNADRBAAAEEEEDAMgESLMsCSnMQQAABBBBAwLwACZb5GFADBBBAAAEEELBMgATLsoDSHAQQQAABBBAwL0CCZT4G1AABBBBAAAEELBMgwbIsoDQHAQQQQAABBMwLkGCZjwE1QAABBBBAAAHLBEiwLAsozUEAAQQQQAAB8wIkWOZjQA0QQAABBBBAwDIBEizLAkpzEEAAAQQQQMC8AAmW+RhQAwQQQAABBBCwTIAEy7KA0hwEEEAAAQQQMC9AgmU+BtQAAQQQQAABBCwTIMGyLKA0BwEEEEAAAQTMC5BgmY8BNUAAAQQQQAABywRIsCwLKM1BAAEEEEAAAfMCJFjmY0ANEEAAAQQQQMAyARIsywJKcxBAAAEEEEDAvAAJlvkYUAMEEEAAAQQQsEyABMuygNIcBBBAAAEEEDAvQIJlPgbUAAEEEEAAAQQsEyDBsiygNAcBBBBAAAEEzAuQYJmPATVAAAEEEEAAAcsESLAsCyjNQQABBBBAAAHzAiRY5mNADRBAAAEEEEDAMgESLMsCSnMQQAABBBBAwLwACZb5GFADBBBAAAEEELBMgATLsoDSHAQQQAABBBAwL0CCZT4G1AABBBBAAAEELBMgwbIsoDQHAQQQQAABBMwLkGCZjwE1QAABBBBAAAHLBEiwLAsozUEAAQQQQAAB8wIkWOZjQA0QQAABBBBAwDIBEizLAkpzEEAAAQQQQMC8AAmW+RhQAwQQQAABBBCwTIAEy7KA0hwEEEAAAQQQMC9AgmU+BtQAAQQQQAABBCwTIMGyLKA0BwEEEEAAAQTMC5BgmY8BNUAAAQQQQAABywRIsCwLKM1BAAEEEEAAAfMCJFjmY0ANEEAAAQQQQMAyARIsywJKcxBAAAEEEEDAvAAJlvkYUAMEEEAAAQQQsEyABMuygNIcBBBAAAEEEDAvQIJlPgbUAAEEEEAAAQQsEyDBsiygNAcBBBBAAAEEzAuQYJmPATVAAAEEEEAAAcsESLAsCyjNQQABBBBAAAHzAiRY5mNADRBAAAEEEEDAMgESLMsCSnMQQAABBBBAwLwACZb5GFADBBBAAAEEELBMgATLsoDSHAQQQAABBBAwL0CCZT4G1AABBBBAAAEELBMgwbIsoDQHAQQQQAABBMwLkGCZjwE1QAABBBBAAAHLBEiwLAsozUEAAQQQQAAB8wIkWOZjQA0QQAABBBBAwDIBEizLAkpzEEAAAQQQQMC8AAmW+RhQAwQQQAABBBCwTIAEy7KA0hwEEEAAAQQQMC9AgmU+BtQAAQQQQAABBCwTIMGyLKA0BwEEEEAAAQTMC5BgmY8BNUAAAQQQQAABywRIsCwLKM1BAAEEEEAAAfMCJFjmY0ANEEAAAQQQQMAyARIsywJKcxBAAAEEEEDAvAAJlvkYUAMEEEAAAQQQsEyABMuygNIcBBBAAAEEEDAvQIJlPgbUAAEEEEAAAQQsEyDBsiygNAcBBBBAAAEEzAuQYJmPATVAAAEEEEAAAcsESLAsCyjNQQABBBBAAAHzAiRY5mNADRBAAAEEEEDAMgESLMsCSnMQQAABBBBAwLwACZb5GFADBBBAAAEEELBMgATLsoDSHAQQQAABBBAwL0CCZT4G1AABBBBAAAEELBMgwbIsoDQHAQQQQAABBMwLkGCZjwE1QAABBBBAAAHLBEiwLAsozUEAAQQQQAAB8wIkWOZjQA0QQAABBBBAwDIBEizLAkpzEEAAAQQQQMC8AAmW+RhQAwQQQAABBBCwTIAEy7KA0hwEEEAAAQQQMC9AgmU+BtQAAQQQQAABBCwTIMGyLKA0BwEEEEAAAQTMC5BgmY8BNUAAAQQQQAABywRIsCwLKM1BAAEEEEAAAfMCJFjmY0ANEEAAAQQQQMAyARIsywJKcxBAAAEEEEDAvAAJlvkYUAMEEEAAAQQQsEyABMuygNIcBBBAAAEEEDAvQIJlPgbUAAEEEEAAAQQsEyDBsiygNAcBBBBAAAEEzAuQYJmPATVAAAEEEEAAAcsESLAsCyjNQQABBBBAAAHzAiRY5mNADRBAAAEEEEDAMgESLMsCSnMQQAABBBBAwLwACZb5GFADBBBAAAEEELBMgATLsoDSHAQQQAABBBAwL0CCZT4G1AABBBBAAAEELBMgwbIsoDQHAQQQQAABBMwLkGCZjwE1QAABBBBAAAHLBEiwLAsozUEAAQQQQAAB8wIkWOZjQA0QQAABBBBAwDIBEizLAkpzEEAAAQQQQMC8AAmW+RhQAwQQQAABBBCwTIAEy7KA0hwEEEAAAQQQMC9AgmU+BtQAAQQQQAABBCwTIMGyLKA0BwEEEEAAAQTMC5BgmY8BNUAAAQQQQAABywRIsCwLKM1BAAEEEEAAAfMCJFjmY0ANEEAAAQQQQMAyARIsywJKcxBAAAEEEEDAvAAJlvkYUAMEEEAAAQQQsEyABMuygNIcBBBAAAEEEDAvQIJlPgbUAAEEEEAAAQQsEyDBsiygNAcBBBBAAAEEzAuQYJmPATVAAAEEEEAAAcsESLAsCyjNQQABBBBAAAHzAiRY5mNADRBAAAEEEEDAMgESLMsCSnMQQAABBBBAwLwACZb5GFADBBBAAAEEELBMgATLsoDSHAQQQAABBBAwL0CCZT4G1AABBBBAAAEELBMgwbIsoDQHAQQQQAABBMwLkGCZjwE1QAABBBBAAAHLBEiwLAsozUEAAQQQQAAB8wIkWOZjQA0QQAABBBBAwDIBEizLAkpzEEAAAQQQQMC8AAmW+RhQAwQQQAABBBCwTIAEy7KA0hwEEEAAAQQQMC9AgmU+BtQAAQQQQAABBCwTIMGyLKA0BwEEEEAAAQTMC5BgmY8BNUAAAQQQQAABywRIsCwLKM1BAAEEEEAAAfMCJFjmY0ANEEAAAQQQQMAyARIsywJKcxBAAAEEEEDAvAAJlvkYUAMEEEAAAQQQsEyABMuygNIcBBBAAAEEEDAvQIJlPgbUAAEEEEAAAQQsEyDBsiygNAcBBBBAAAEEzAuQYJmPATVAAAEEEEAAAcsESLAsCyjNQQABBBBAAAHzAiRY5mNADRBAAAEEEEDAMgESLMsCSnMQQAABBBBAwLwACZb5GFADBBBAAAEEELBMgATLsoDSHAQQQAABBBAwL0CCZT4G1AABBBBAAAEELBMgwbIsoDQHAQQQQAABBMwLkGCZjwE1QAABBBBAAAHLBEiwLAsozUEAAQQQQAAB8wIkWOZjQA0QQAABBBBAwDIBEizLAkpzEEAAAQQQQMC8AAmW+RhQAwQQQAABBBCwTIAEy7KA0hwEEEAAAQQQMC9AgmU+BtQAAQQQQAABBCwTIMGyLKA0BwEEEEAAAQTMC5BgmY8BNUAAAQQQQAABywRIsCwLKM1BAAEEEEAAAfMCJFjmY0ANEEAAAQQQQMAyARIsywJKcxBAAAEEEEDAvAAJlvkYUAMEEEAAAQQQsEyABMuygNIcBBBAAAEEEDAvQIJlPgbUAAEEEEAAAQQsEyDBsiygNAcBBBBAAAEEzAuQYJmPATVAAAEEEEAAAcsESLAsCyjNQQABBBBAAAHzAiRY5mNADRBAAAEEEEDAMgESLMsCSnMQQAABBBBAwLwACZb5GFADBBBAAAEEELBMgATLsoDSHAQQQAABBBAwL0CCZT4G1AABBBBAAAEELBMgwbIsoDQHAQQQQAABBMwLkGCZjwE1QAABBBBAAAHLBEiwLAsozUEAAQQQQAAB8wIkWOZjQA0QQAABBBBAwDIBEizLAkpzEEAAAQQQQMC8AAmW+RhQAwQQQAABBBCwTIAEy7KA0hwEEEAAAQQQMC9AgmU+BtQAAQQQQAABBCwTIMGyLKA0BwEEEEAAAQTMC5BgmY8BNUAAAQQQQAABywRIsCwLKM1BAAEEEEAAAfMCJFjmY0ANEEAAAQQQQMAyARIsywJKcxBAAAEEEEDAvAAJlvkYUAMEEEAAAQQQsEyABMuygNIcBBBAAAEEEDAvQIJlPgbUAAEEEEAAAQQsEyDBsiygNAcBBBBAAAEEzAuQYJmPATVAAAEEEEAAAcsESLAsCyjNQQABBBBAAAHzAiRY5mNADRBAAAEEEEDAMgESLMsCSnMQQAABBBBAwLwACZb5GFADBBBAAAEEELBMgATLsoDSHAQQQAABBBAwL0CCZT4G1AABBBBAAAEELBMgwbIsoDQHAQQQQAABBMwLkGCZjwE1QAABBBBAAAHLBEiwLAsozUEAAQQQQAAB8wIkWOZjQA0QQAABBBBAwDIBEizLAkpzEEAAAQQQQMC8AAmW+RhQAwQQQAABBBCwTIAEy7KA0hwEEEAAAQQQMC9AgmU+BtQAAQQQQAABBCwTIMGyLKA0BwEEEEAAAQTMC5BgmY8BNUAAAQQQQAABywRIsCwLKM1BAAEEEEAAAfMCJFjmY0ANEEAAAQQQQMAyARIsywJKcxBAAAEEEEDAvAAJlvkYUAMEEEAAAQQQsEyABMuygNIcBBBAAAEEEDAvQIJlPgbUAAEEEEAAAQQsEyDBsiygNAcBBBBAAAEEzAuQYJmPATVAAAEEEEAAAcsESLAsCyjNQQABBBBAAAHzAiRY5mNADRBAAAEEEEDAMgESLMsCSnMQQAABBBBAwLwACZb5GFADBBBAAAEEELBMgATLsoDSHAQQQAABBBAwL0CCZT4G1AABBBBAAAEELBMgwbIsoDQHAQQQQAABBMwLZJuvAjVAAIEwgfaOjuqm1qrGFv3X2NbW1t6RlZmRn5VVkp+j/4rzsjMzMsIO5yECCCCAgB8FMjo6OvxYL+qEQPAE6lta91TV762qb2k//VOpNCr0wxl6nJOZMbqkYExJQUEOn46C9xahxQggkD4CJFjpEytqaq9AS1v7e+U1+6obQomUS1udY0YV955aVpSTxSi/CxUvIYAAAsYESLCM0XNhBByB43VNG49WNbW1xwqSn5U5c0jJoMK8WE/keAQQQACBZAuQYCVbmPIRcBPYXVn37okatyMivTZtYNHY0sJIR/E6AggggEBKBRhfSCk3F0MgXCDx7EqlKT9TOeHF8hgBBBBAwLgACZbxEFCBgApoZDDBvqsQnMpRaaFveYAAAgggYFyAIULjIYinAqzkj0fNT+doVvu6veVxzLvqqRGajzVndBlz3nvy4XkEEEAgxQKs9E4xeKKXi7CSv/p0+azkT1Q5+edrzWBzz7PaD+zc/uAPv7d76+aqD0/k5fc+Z9yEG+/9/IVXz3WpV+OZdYjnDy5xOYaXEEAAAQRSJkCClTLqRC/U7Ur+0D5JKj30WLso7ayo21FRx0r+RNGTc35dS6t2ZHApu/zIoYa62tk33Vo6cHBTY8Nr6x7/xz/59B99+5/nLrnL5SyVOal/H/bHciHiJQQQQCBlAgwRpow6oQuxkj8hPp+dvKW8RhlwKCGOWDtt5/61RfOam5r+88mXXA7W/lgT+hVOLityOYaXEEAAAQRSI8Ak99Q4J3QVrRHbcKgivvk6GjnSuawySygAnp6s+XPaqz367EoXz8rK6j94aP2pCLs5qExtBK/yPa0vhSGAAAIIxCPAEGE8aqk8x6uV/KozuyWlMnA9XUv3GXTuhNPTAaHnG+vrm5sa6k+denP9urdfeu6yBZ8IvdTTA5Ws8kvzc3o6gOcRQAABBFIjQIKVGuc4r+LtSv4+udns+h1nJLw7TbdwjrKwX//Tt9et+F8dnJmZOWvOdZ/9m7+P5kSVT4IVDRTHIIAAAkkVIMFKKm9ChWtWu+6gklARZ5+86WgVK/nPJjHwnRKgaG44qJotvPuzF89bWHni+CtPrmlvb2ttiZyZqeToEzgDjeeSCCCAQGAEmOTu31C/daxqf3VDTxNqtrz+yjfvXtyp9t9dvmbC9Jmdngz/VusKWckfDpLKxx0dHZqu/tqRyhMNrbFe9+/uvb3uVM0/Pvh4RoaSKLevIX3yLhnWz+0IXkMAAQQQSL4APVjJN47rChFX8julXvfJz4ybOj10hcEjR4Ued/uAlfzdsrg/qcSotVX9Ry3Nzc36N/yBy+NuX1JRoz6+oO+Q4e5X7PrqxfOu/8k3v3Zk7+5hY8Z1fTX8mbb2nnLy8KN4jAACCCCQXAESrOT6xl26FppFM5B03sxZl8y/PvqrqEyVHJCV/O3t7aezoTNfodxI3/X02OUlF2F1KeXm5uac+Qo90HeFhYXFxcWhZ0IPjueV1J7esyxCR1SnKzY3NeqZ+tpTnZ7v+m1WZmwldy2BZxBAAAEEEhcgwUrc0PsSYlrJ31Bbm5ufn5UdVSj1h10r+c8d0Dcz0kiT962KukSNo/WU67jkRuGnOIepHJdrau8DpUGhvCf0uHfv3meSpW5e6vS8c67KcblK15fePlZdVx1hm4bqkx8W9x8QOle9Zy+sekhRPmfshNCT3T5QbpUfY326LYcnEUAAAQQSFIjqr3KC1+D0WAWiX8n/w7/8UmN9XWZW1rkzZ33qq38zbuq0iNdK0kr+0DhaeKLj8tjlJfU8ubTCyXJC+ZDzbV5eXp8+fUIvhb/aNYVyDtPSPJerJO+lkvycjjN3NHK5xI+/+TXlzeddMKvfoMFVH5a/uObRw3t23f0X3+xdWOhyll5SAq3y3Y/hVQQQQACBFAiQYKUAOeZLRLMQLDsn5+K5C8//+NVFpf0O7trxu1/++G/uuvnvH1g95rypEa8XvpJf2YwmGHXbM9Ttk0qMnK+ur7pcV+No4UlP6HFBQYGT7vSUBnV6Pjs7O+Isb5dq+OGlaBIgbXn17CMPrF3+m1NVlb0L+4yZPPWTf/5XF149L5r6R1N+NOVwDAIIIIBAIgKsIkxEL1nnahRpX6RRpE7XPrp/75dvvOa8Cy7+m58v6/RSp2872tvrj+z7cPMbTp6k7KrTAeHfOuNonXKg8KSn00uhzCn8gR6rnHRPjMJZEnms8d/Hdx2Pcq/RWC+k+3wvHDfIz+O/sbaI4xFAAIE0FaAHy4+Ba2xri3Ul2JCRo9XD8frTT2rikfusICU6Rf36nzN9uktuFEqPTI2j+TEqHtVJ2c/okoKY7kUY5ZU1AWtMSQHZVZRcHIYAAggkVYAEK6m8cRYe30r7AUOGtracvrdKQZ++bhfOyOg/oOzyGZPcjuG1ZAooDdpRUef5FZSUK3XzvFgKRAABBBCIQ8DMPN84KhqoU+JbaX/84IHcvPz8ggjzoCUZX/mBCkFSG1uQk60dXz2/hMpUyZ4XS4EIIIAAAnEIkGDFgZb0U7TSPuJeRtUVJ8Prse+DrRufWzftsisjDuqxkj/czdTjqWVF+Vle/vSpNJVpqjlcFwEEEECgkwCfdzuB+OLbaFby/9uX/lgbI02ccUFxvwGHdu94+sHf5ub3vusrfxWxAazkj0iUggNysjJnDinZcKjCq2upNJXpVWmUgwACCCCQoAAJVoKASTk9mpX2F10z76XHVq75n5821J0qKu0/a851t/3plzXVPZoKRVN+NOVwTCICgwrzpg0sevdETSKFOOeqHJWWeDmUgAACCCDglQDbNHgl6WU5rOT3UtPfZe2urEswxzrx7uuLZl9WVlbm74ZSOwQQQCBYAowp+DHezkr+iNOw4qi6ymQlfxxuyTtlbGnhZef0i28+ls66cGCf9g+PLFu2rLa2NnmVpGQEEEAAgVgFSLBiFUvR8UqDYt0KK5qasZI/GqUUH6PRvTmjy5x1hdFk1c4xOl5nDS/tu3TpUu0Wu3z5cu0cm+KaczkEEEAAgZ4EGCLsScb8828dq9pX3eBtPfRX+fzBJd6WSWleCdS3tO6tqtfduJ193pVIhZLs0GPt1a7kW/tdhe/IcOTIkV/96ldjx4699dZbIy4j9aq2lIMAAggg4CJAguWCY/illrb2p/eWN7a53fk4pipqREl9Hqw1iwkt9QdrBp7u9q37Reo/7emvXWe1b5l27tDSBP1XnJfd7V7t27dvX7FixaxZs+bNi+qWhalvF1dEAAEEAiVAguXrcB+va/JwJb/m+rDWzNfxTqxyr7/++lNPPbVgwYKLLroosZI4GwEEEEAgUQHmYCUqmNTznZX8nlyClfyeMPq5EHVf6Us51o4dO/xcT+qGAAIIBEGABMvvUdYqM+VGCdZSJaicBAvhdP8LzJ07d8KECQ8//PDRo0f9X1tqiAACCFgswBBhegRXY4WbjlbFMR9L8660xzcjg+kRZi9q2dzc/Otf/7qmpuazn/1scXGxF0VSBgIIIIBAzAIkWDGTmTpBc97fK6/RusKOjvaMjAhdj86iM60Z1P3pmNVuKmSmrqs9sX7+85/n5eXdc889+fn5pqrBdRFAAIEgC0T4Ox1kGr+1XXmSdli4oCizfNu7WX9Yv+9sieRUNfRYK/kn9CucP6ZMx5Nd+S2OKahPnz597rzzzurq6oceekjLEFNwRS6BAAIIINBJgB6sTiB+//aFF1549dVXv/yVr9S19Yp1Jb/f20b9PBXYu3fvb3/722nTpt1www0ZGaH029NrUBgCCCCAQA8C3Oy5Bxi/Pr1t2zbNYs7NycnN6VWan+PXalIv8wKjR49WarV69ep+/fpdfvnl5itEDRBAAIEgCZBgpVO0T548eeLEiauuuiqdKk1dzQlMnz69srLy2WefLSkpmTJlirmKcGUEEEAgcAIkWOkU8vfffz8nJ2fcuHHpVGnqalRA6XhVVdWqVauKiopGjBhhtC5cHAEEEAiQAJPc0ynYSrDGjx+vHCudKk1djQpo9pUGCs855xzdDVo9oEbrwsURQACBAAmQYKVNsNUPoXv6nnvuuWlTYyrqD4Hs7OwlS5YUFBQsW7asvr7eH5WiFggggIDlAiRYaRNgdV9lZWWpByttakxFfSPQu3dvbdzQ2NiofqzW1lbf1IuKIIAAAtYKkGClTWiVYI0dO1a7R6ZNjamonwRKS0vvuOMO3UJH87E6Ojr8VDXqggACCFgoQIKVHkE9derUwYMHGR9Mj2j5tZaaiXXzzTdv3bpV6wr9WkfqhQACCFgiQIKVHoFU91VmZubEiRPTo7rU0q8C55133pw5czZs2LBp0ya/1pF6IYAAAjYIsE1DekRRCZb2jdRMmvSoLrX0scAll1yizbEef/xx3QqaLT98HCiqhgAC6S1AD1YaxK+urm7//v2MD6ZBqNKhitq4YcGCBUqtdKfC48ePp0OVqSMCCCCQfgIkWGkQs+3bt6uWkyZNSoO6UsV0ENBw8+LFi3ULHW3coOl96VBl6ogAAgikmQAJVhoETOODI0eOLCwsTIO6UsU0EcjNzV26dKkqqxyrqakpTWpNNRFAAIG0ESDB8nuoGhoa9uzZw/ig3+OUhvXr27evcqyKiopHHnmkvb09DVtAlRFAAAH/CpBg+Tc2Ts127NihP36MD/o9TulZv0GDBt122227du168skn2RwrPWNIrRFAwKcCJFg+DUyoWhof1PZFulNv6BkeIOChgHavXbhw4caNG1999VUPi6UoBBBAIOACbNPg6zeAJseod+Gaa67xdS2pXJoLzJw5Uxs3PP300yUlJdooK81bQ/URQAABXwiQYPkiDD1VYufOnW1tbUzA6smH570SUBKvu4mvXLlSfaXqMfWqWMpBAAEEAivAEKGvQ6/xwSFDhqhfwde1pHLpL6DNsW666Sa92R544AH1ZqV/g2gBAgggYFiABMtwAFwu39LSoh4suq9ciHjJQ4Hs7Ozbb789Pz///vvv19pVD0umKAQQQCCAAiRY/g26Zl8px2JOjH8jZF3NCgoKtHFDfX39ihUrWltbrWsfDUIAAQRSJ0CClTrrWK+k8cGBAwf2798/1hM5HoG4BfR+Uz/WoUOH1qxZw8YNcTNyIgIIIECC5dP3gPoPtAMW44M+DY/V1RoxYoTmY23evPn555+3uqE0DgEEEEiiAKsIk4ibSNF79+7VHg2MDyZiyLlxC0yZMkVT3devX19aWjp9+vS4y+FEBBBAILACJFg+Df22bds0WFNWVubT+lEt2wUuv/xy5VgaKCwuLh49erTtzaV9CCCAgMcCDBF6DOpJcbo3zvbt2zU+qMXznhRIIQjEKqD3nnZ4V2qlCe/l5eWxns7xCCCAQMAFSLD8+AbYt2+f1skzAcuPsQlSnbKyshYvXqweLG3cUFtbG6Sm01YEEEAgUQESrEQFk3G+xge1uah2fUxG4ZSJQPQC2hZLGzfodgLagLS5uTn6EzkSAQQQCLgACZbv3gAaH/zggw8mTZrE+KDvYhPICqkHSzmWRgkfffRRvTkDaUCjEUAAgZgFSLBiJkv2CQcPHqyrq2P9YLKdKT96AXWmaqxQ+4asW7cu+rM4EgEEEAiyAAmW76Kv/UX79u3LDXd9F5hgV2jChAkLFix4/cxXsCVoPQIIIBCVANs0RMWUsoO0d7YSLMYHUwbOhaIXuPDCCysqKtauXasJghMnToz+RI5EAAEEAihAD5a/gn7kyJGamhrGB/0VFWrzB4G5c+cq+3/kkUf0Rv3Dc/wfAQQQQKAbARKsblAMPqX1g7rhru5VYrAOXBqBngS08OLmm2/WLTK1qLCqqqqnw3geAQQQQIAEy0fvgdD4YGYmcfFRXKhKuEBOTo7uBp2dnb1s2bLGxsbwl3iMAAIIIBAS4A95iML8g+PHj+vmJOwvaj4S1MBVoE+fPtq44dSpUw8++KC2yHI9lhcRQACBgAqQYPko8Bof1L6O3PfNRyGhKj0I6C6ZS5Ys2b9//2OPPaae1x6O4mkEEEAguAIkWD6KvdYPanGW7k/iozpRFQR6EBg1atSNN974zjvvvPTSSz0cwtMIIIBAcAXYpsEvsddO2R9++OG1117rlwpRDwQiCXzsYx/ToPZzzz1XWlo6derUSIfzOgIIIBAgARIsvwRb3Ve5ubljx471S4WoBwJRCFx55ZXKsVavXl1UVDRy5MgozuAQBBBAIBACDBH6JcyagKXNsrU4yy8Voh4IRCGgjRtuuOGG4cOHL1++XF2wUZzBIQgggEAgBEiwfBFmbZCtJYSsH/RFMKhEjAKaNXjbbbdpaaE2btBtNGM8m8MRQAABOwVIsHwRV40Pqu9q3LhxvqgNlUAgRoHevXvfeeedzc3N6sdqaWmJ8WwORwABBCwUIMHyRVCVYI0fP15zsHxRGyqBQOwCukHhHXfccezYsVWrVrFxQ+x+nIEAArYJkGCZj2h1dfXhw4cZHzQfCWqQmMCwYcMWLVqk2YTPPPNMYiVxNgIIIJD2AiRY5kOo7ivNYtEMd/NVoQYIJCagW0HPmzfvlVde2bhxY2IlcTYCCCCQ3gKsWTMfPyVYY8aMycvLM18VaoBAwgKzZs3Soo0nnniiuLhYA98Jl0cBCCCAQFoK0INlOGy1tbUHDhxgfNBwGLi8dwLauGH+/PlKrR5++GFNyfKuYEpCAAEE0kmABMtwtNR9pT9IukOO4XpweQS8E8jMzNRkrP79+2vjhpqaGu8KpiQEEEAgbQRIsAyHSgmW7u5cUFBguB5cHgFPBbQkVosK9eFBOVZTU5OnZVMYAgggkAYCJFgmg1RfX79v3z7GB03GgGsnTaBv377aHKuqqkpjhe3t7Um7DgUjgAACfhQgwTIZle3bt2vHIC28MlkJro1A0gQGDhyoTd737NmjOe9sjpU0ZgpGAAE/CpBgmYyKxgd1f1zdY8RkJbg2AskU0ArZ66+/ftOmTdq7IZnXoWwEEEDAXwIkWMbi0djYuHv3bsYHjQWAC6dKYMaMGVdccYV2H926dWuqrsl1EEAAAcMC7INlLAA7duzQxBQSLGMB4MIpFJg9e3ZlZeXKlSuLioqGDx+ewitzKQQQQMCMAD1YZtx1VY0P6tYi+ntjrAZcGIFUCWg54Y033qg3vO4GrW1IU3VZroMAAggYEyDBMkPf3Ny8a9cuuq/M6HNVEwLZ2dlLlizJz8/Xxg1aP2uiClwTAQQQSJ0ACVbqrMOvtHPnztbW1vPOOy/8SR4jYLeA9nvTxg0NDQ0rVqzQ+9/uxtI6BBAIuAAJlpk3gMYHBw8eXFpaaubyXBUBQwL9+vW7/fbbDx8+vHr1ajZuMBQELosAAqkQIMFKhXKna+izu3qwGB/sxMK3ARHQJPebb755y5Ytzz33XECaTDMRQCCAAqwiNBB07c6gOViMDxqg55L+EJg8ebJ2eNfGDerE1SYO/qgUtUAAAQS8FCDB8lIzyrK2bdtWVlY2YMCAKI/nMATsE7j00ku1nPCxxx4rLi7WZqT2NZAWIYBAwAUYIkz1G6CtrU13yGF8MNXuXM9nAtq4YeHChUqtHnzwwRMnTvisdlQHAQQQSFSABCtRwVjP37t3b1NTE+ODsbpxvH0CmZmZixcvLikpuf/++0+dOmVfA2kRAggEWYAEK9XR1/igFlLpJripvjDXQ8B/Anl5eUuXLtVywgceeEATE/1XQWqEAAIIxClAghUnXHyn6d44zvigxkfiK4GzELBMQDczUI518uTJRx55RD8glrWO5iCAQGAFSLBSGvr9+/drD2smYKUUnYv5XkB7wmmsUHuXrF271veVpYIIIIBAVAIkWFExeXWQxge1Zmro0KFeFUg5CNghMH78+Ouuu+6NN9547bXX7GgRrUAAgYALsE1D6t4AmmjywQcfaAcgxgdTh86V0kfgggsuqKysVCeWpr1PmjQpfSpOTRFAAIFuBOjB6gYlSU8dPHiwtraW9YNJ4qVYCwSuvfZa/YBoMpbupWNBc2gCAggEWYAEK3XR1/0H+/Tpo/uEpO6SXAmBtBJQ5+5NN92kKVlaVKit3tOq7lQWAQQQOEuABOssjuR9o/FBJVga+GB8MHnIlGyBQE5Oju4GnZubq82xGhsbLWgRTUAAgWAKkGClKO5Hjx6trq5mfDBF3FwmnQUKCwu1cYPG01esWKE7H6RzU6g7AggEV4AEK0Wx1/rB3r17jxw5MkXX4zIIpLOA7tSpfixNW1yzZo16f9O5KdQdAQQCKkCClYrAh8YHdW+QVFyPayCQ/gL6NHLjjTe+++67L774Yvq3hhYggEDgBPh7n4qQ6162FRUV7C+aCmuuYZHA1KlTZ8+e/fzzz2/evNmiZtEUBBAIhAD7YKUizBof1D3XxowZk4qLcQ0ELBK44oortDnW6tWrdUedUaNGWdQymoIAApYL0IOVigBr/eDEiROzsrJScTGugYBFAlp1e/3112u4UBPey8vLLWoZTUEAAcsFSLCSHuAPP/xQfxgYH0w6NBewVECfTG677ba+ffsuW7asrq7O0lbSLAQQsE2ABCvpEVX3lbb2GTt2bNKvxAUQsFQgPz9fGze0trZqA9KWlhZLW0mzEEDAKgESrKSHUwnWhAkTlGMl/UpcAAF7BXSDwjvuuEPrRVauXMnGDfbGmZYhYI8ACVZyY6n5udpilPHB5CpTejAEhg4dumjRIn1iefrpp4PRYlqJAAJpLECCldzg6Y9Bdnb2+PHjk3sZSkcgGAJaLDJ//vxXX331zTffDEaLaSUCCKSrANs0JDdySrA0+0o3VkvuZSgdgcAIzJo1Sx3DTz75ZHFxsQbfA9NuGooAAmkmQA9WEgNWU1Nz6NAh7j+YRGKKDqTA3LlzlVo9/PDDGn8PJACNRgCBNBAgwUpikNR9pXvj8CE7icQUHUgB/VjdcsstZWVl2rhB91APpAGNRgABvwuQYCUxQkqwtHu7Vpgn8RoUjUAgBTTsrkWF2iJLOVZTU1MgDWg0Agj4WoAEK1nhqa2tPXDgAOsHk+VLuYEX6NOnjzbHUg/WQw891NbWFngPABBAwF8CJFjJiscHH3ygoidNmpSsC1AuAoEXGDhwoDZ537t37+OPP87mWIF/OwCAgL8ESLCSFQ+ND+retAUFBcm6AOUigECvXhqFv+GGG95+++0NGzbggQACCPhHgAQrKbFoaGjYt28f44NJwaVQBM4WmD59+pVXXvnss89u2bLl7Ff4DgEEEDAmwD5YSaHfvn17e3s744NJwaVQBLoIXHXVVVVVVatWrSoqKhoxYkSX13kCAQQQSLUAPVhJEdf4oH7L9+3bNymlUygCCJwtkJGRoYHCc845Z/ny5SdPnjz7Rb5DAAEEDAiQYHmPrkXju3fvZnzQe1lKRKBnAd2TasmSJZr1qI0b6uvrez6QVxBAAIFUCJBgea+8Y8cOLRonwfJelhIRcBXo3bv3nXfe2djYqH6s1tZW12N5EQEEEEiuAAmW974aHxw6dKhulOZ90ZSIAAKuAqWlpdqAVLfQ0XwsNm5wpeJFBBBIrgAJlse+zc3NO3fupPvKY1aKQyBqAc3Euvnmm7du3bp+/fqoT+JABBBAwGMBEiyPQXft2qWxCW7w7DErxSEQi4B+AOfMmfPyyy9v2rQplvM4FgEEEPBMgG0aPKN0CtL44KBBg/r16+dxuRSHAAKxCFxyySWVlZXa4b2kpGTs2LGxnMqxCCCAgAcC9GB5gBgqQn1XmuHO+GAIhAcImBLQxg0LFiwYN27cgw8+ePz4cVPV4LoIIBBYARIsL0O/Z88ezcFifNBLU8pCIF6BzMzMxYsXqztZGzecOnUq3mI4DwEEEIhHgAQrHrWeztm2bduAAQPKysp6OoDnEUAglQK5ublaVKgrKsfSh59UXpprIYBAwAVIsDx7A2jvK90hh/FBz0Ap+JQW0QAAMbFJREFUCAEvBHTznKVLl1ZUVDz88MO6gZUXRVIGAgggEFmABCuyUZRH6O7O2uGQBCtKLg5DIGUCWndy6623aoXvk08+yeZYKWPnQggEXIAEy7M3gMYHtcnh4MGDPSuRghBAwCMBzXZfuHDhxo0bX3vtNY+KpBgEEEDATYBtGtx0on9NQw8aH5w2bZrWLkV/FkcigEDKBGbOnKmNG9atW6e7LLASJWXsXAiBwAqQYHkT+gMHDtTV1TE+6I0mpSCQHIFrrrmmqqpq5cqVmpilDd+TcxFKRQABBE4LMETozftA+4vqV/awYcO8KY5SEEAgCQLqYL7pppuGDBnywAMPqDcrCVegSAQQQOD3AiRYHrwVNG1WCdakSZMYH/RAkyIQSKZAdnb27bffnp+fr40bGhoaknkpykYAgUALkGB5EP5Dhw5pG0NmdXhASREIJF+goKBAGzdoTF+bvOvuC8m/IFdAAIEgCpBgeRB1dV8VFhYOHz7cg7IoAgEEki/Qv39/9WMdPHhwzZo1bNyQfG+ugEAQBUiwEo16aHxQ9+VItCzORwCBVAmMGDFC87E2b978wgsvpOqaXAcBBAIkwCrCRIN97NgxrUtifDBRR85HIOUCU6ZM0VT39evXl5SUTJ8+PeXX54IIIGCzAAlWotHV/qK9e/ceOXJkogVxPgIIpFzg8ssvV46lgUJtjjV69OiUX58LIoCAtQKMaiUUWmd8cOLEiVlZWQkVxMkIIGBCQCt/tcP7qFGjVqxYUV5ebqIKXBMBBOwUIMFKKK76jXzy5En2F00IkZMRMCqgT0e6U6F6sO6///7a2lqjdeHiCCBgjwAJVkKx1PhgXl7emDFjEiqFkxFAwKiAtsXSxg1tbW3agLSlpcVoXbg4AghYIkCClVAgtUHDhAkTtHVhQqVwMgIImBZQD5ZyLPVJP/roo7q1qOnqcH0EEEh7ARKs+EOowcETJ04wPhi/IGci4CcB3UJn8eLFumu7bgjtp3pRFwQQSEsBEqz4w6buq5ycnHHjxsVfBGcigICfBNQhPX/+/NfPfPmpXtQFAQTST4CxrfhjpgRr/PjxyrHiL4IzEUDAZwIXXXSRNm5Yu3atNsfSAmGf1Y7qIIBA2gjQgxVnqLS56JEjRxgfjJOP0xDwscDcuXOVWj3yyCP6GfdxNakaAgj4WoAEK87wqPtKq7vVgxXn+ZyGAAJ+FdDmWLfccsvAgQO1qFAfpfxaTeqFAAK+FiDBijM8SrDGjh2rPRriPJ/TEEDAxwIa+tfdoLVAeNmyZY2NjT6uKVVDAAGfCpBgxROYU6dOHTx4kPHBeOw4B4E0EejTp482btAP+0MPPaQtstKk1lQTAQT8IkCCFU8k1H2VmZnJBNh47DgHgfQRKCsrW7Jkyb59+x577DHdFyt9Kk5NEUDAvACrCHuMQXtHR3VTa1Vji/5r1AfY9o6szIz8rKyS/JztBw6NHjNG93ju8WReQAABKwR0m8JPfOITq1atKi0tvfLKK61oE41AAIFUCJBgdaNc39K6p6p+b1V9S/vpz6wZvXqFPrqeflzdq3DqJZkd7VvKa8aUFBTkYNiNIU8hYI3AtGnTtHHDc889pxxr6tSp1rSLhiCAQFIFMuj3DvdtaWt/r7xmX3VDeFIVfkD4Y+eYUcW9p5YV5WQx2Bpuw2MErBLQ78nVq1dv2bLlk5/85MiRI61qG41BAIHkCJBgfeR6vK5p49GqpraYb0OWn5U5c0jJoEJWFH6EySMELBPQNIHf/va3x48fv/feewcMGGBZ62gOAgh4LkCC9XvS3ZV1756oScR32sCisaWFiZTAuQgg4GeBhoaGX/7yl8q0PvOZzxQW8sPu51hRNwTMCzCwdToGiWdXKkT5mcoxH1JqgAACyRHQuhZt3NDc3Lx8+fKWlpbkXIRSEUDAEgESrF4aGUyw7yr0XlA5Ki30LQ8QQMAyAc1zv+OOO44dO6Z1hUxgtSy4NAcBbwWCnmBpVrvmXXlouulolcr0sECKQgABXwkMGzZMN9LZtm3bM88846uKURkEEPCVQNC3GNCaweae86H//Pp9z696sGvAfvrCpv6DhnR9Xs80nlmHeP7gkm5f5UkEELBAQHdx0A2h161bpw6tCy64oGuLXHbR00Z6xXnZmRlahcwXAgjYLBDoBKuupVU7MriEd+6Suz526RWhAzQi8NNv/UXZsOE9ZVfOkSpzUv8+7I8VcuMBAvYJXHzxxdoc64knnigpKRk3blyogRF30dOROZkZo0sK2EUvhMYDBKwUCHSCpa1E3fe7mjjjAv0XCvz7m15vami48vpbQs90+0BlquTJZUXdvsqTCCBggUBGRsb8+fOrq6t1p8J77rln8ODB3e6iF9qjWE0OPdYOxjsr6nZU1LGLngXvBJqAQE8CwZ2DpT58pUGhX3k9AYU//9Jjq/Rb9Yrrbw5/sutjlamN4FV+15d4BgEErBHQDUkXLVrUv3//ZcuW7S2vWLe33OkRj+Yn3zlGxz+9t5yVMda8JWgIAuECwU2wdJ9B50444Rwuj1tbWl558nfq0Bp4znCXw5yXVLLKj3gYByCAQFoL5ObmalFh0agJb1c0xbFHsdquWZsbDlWww0tavw2oPALdCgQ3wdItnLsV6enJd15+/lRV5RU3RBgfDJ0ea/mhE3mAAAJpJHCiNbPf5JkJVphd9BIE5HQEfCgQ6AQrpmU8Lz22Mjsn57L5N0QTRZVMghUNFMcgkNYC7KKX1uGj8ggkVSC4CVZjW1s0UyUc/Ya6ujfXr5122cf7lvaLJh4qWeVHcyTHIIBAmgqwi16aBo5qI5AageAmWG3t0edXvd549qnT6wejHh9U8GIqPzXB5ioIIOChgPsuep0u9PCPv79o0tD7bpjd6fnwb51d9MKf4TECCKSvQHATrKzMGEYIX1rzaH5B4YVXz40+0jGVH32xHIkAAn4QcHbRi/JT2sljRx79yQ/yCwoi1lzrCrWTVsTDOAABBPwvENwEKz8rK8oMq7ri5OZXX5o1Z0Fe78i/H52Qq2SV7//wU0MEEIhPwNlFL8pzf/3Pfzdh2syxk6dFPF6/OlRyxMM4AAEE/C8Q3ARLN6yI8tPnhidWt7W2XhFpf9HwYKtklR/+DI8RQMAagZh20dv65muvrn38nm98O5rm61cHu+hFA8UxCPhfINAJVpTheWnNyuL+A8LvmRPNiSRY0ShxDALpKBD9LnptbW2/+M5fX7t46ciJ50bZUnbRixKKwxDwuUBwb5Wj+63qjmDR7DX63RVrYo2iSlb5sZ7F8QggkBYC0W/Csm75b8qPHPrm/6yIqV0qv5Qu8JjIOBgB/wkEtwdLd7PX/VajnIYVU+BUpm7jqvJjOouDEUAgXQSUAEXz432qsmL5D/711s/fV9yvf/RNU8nRJ3DRF8uRCCCQYoHgJliCVhoU5TSsmKKiMpW6xXQKByOAQBoJRLmL3rLv/3OfkpIFd90bU9P0C4Rd9GIS42AE/CkQ6ASrICdbd7P3NjAd7e29qk70amn2tlhKQwAB/whEs8vdkX17nnnwtwvvurfyxPEThw7qv+bmpraWFj3QTbfc2xJN+e4l8CoCCBgXyOjoSEYnjvF2RVsB7cWsu9lrf79oT4h0XGZ7284nHuxoa73mmmvOP//8DAYKI4nxOgJpJ/Dq4YqjtU3u1d7y+ivfvHtxt8cs/NRn7/3Lv+v2JefJIX3yLhkW1U0jXArhJQQQMCsQ9ARL+rqbmO5m71UYLjunX59erc8888w777wzbNiwhQsXDhkyxKvCKQcBBPwg8Pax6n3V9e6fTWsqT76/6Y3w2j7w/X9uqKtVajV4+CiXRYWagzWquGDG4OLwc3mMAAJpJ0CCdTpkuyvrdDf7xIM3bWDR2NJCp5z9+/c/8cQT5eXlF1544ezZs/Pz8xMvnxIQQMAPArsqTm0uP9WrVzQz3T+q799+clFNVcV/rHnuo6e6e6RRhaptb/XPbD3nzNfAgQMzMwM9l6M7JJ5DIA0E2ErgdJCcrCjBHCs8u1KZI0eO/NznPvf6668///zz27Ztmzt37pQpUxgxTIOfCaqIQA8C1dXVO898HamsGX3NJ3o4KtGn9VtiUFHhkT07N2/erGQrNzdXfeHKtYYPH65/e/f2eNpootXlfAQQ6EGAHqyPYDRWuOloVRzzsfKzMmcOKRlUmPdRWWGPampq1q5dqxxr1KhR1113XVlZWdiLPEQAAV8LtLe3Hzp0aMeOHcqsTpw4oexnxIgR48aPrygb0+o+Rhhvs7SL3sJxg7TPS3Nz85EjR3R1fR08eLC+/vQtdAYMGBBKtvTLhM9s8TJzHgJJFyDBOotYc97fK6/ZV1WvD44ZkbrlNTygX7Bahzi1rCgnK0If/q5du5588smqqqpLL730yiuvzMnhRjpnyfMNAr4SUDajn1klVbt3725oaCgoKBg3TmnV+LFjxzp9SFvKa3ZW1HmeYum3yoR+hZPLijpp6DdSZWWl0iwn3zp+/LieycvLOzOKeLpzS71czEPohMa3CJgVIMHq7K9Pjd//rx9Pvnx2W3GZs8+7k0g5x4Ue61OmttHSflfa66FzET1839raumHDhpdeeqlPnz4LFiyYOHFiDwfyNAIIGBBQyqLE5cwY4E7lMfp28ODBSqomTJgwdOjQThOh6ltan9pTnoxazh9TFvG3SlNTkzq3QvmWUkDVRB1azjCi/u3fvz+dW8mIDmUiEL0ACVZnq02bNj3++ONf/OIX+xYV6Y5j2lJZ/2nfP+1Mk5WZkZ+VpZsM6j/dCSe+vdorKirUlaUPx/qtPX/+/NLS0s414HsEEEihgD5T7d27V4OA+qnUgL56l9VNpbxKX3379nWpyFvHqvZVn85sPPxSj/j5g0tiKlCJ4MmTJ51hRP2rcUydrt4sJ9lSF5c6t9TXFVOZHIwAAokLkGB1NvzpT3+qHqalS5d2fsG77/UL8YMPPnjqqac0DKHhwksuuSQ7O9puMO9qQUkIBFpAI27OzKp9+/bpA1S/fv2cpErLU6L8efR8Fz3N5pwzuizifAP3sDU2Nh4+fDjUuaW+LnVlaSmiM3NLWZc+1NG55W7Iqwh4IkCCdRajet1/9rOf3X777SkYv9Pn5hdeeOG1117T7ztNfh8zZsxZVeEbBBDwWkCJ1IEDB5xBwA8//FCjflp64uRVGlOL42qe76LX01qZOOqmU/RZTs1UsuXkW3qsJzWfLDRzS0OfWqUYX+GchQAC7gIkWGf5rFmzRsMEGh/sNN/irIM8/Ub9+RqR1C99beKgrRzchyQ8vTKFIRAUgdra2tCMdfXoqIvaSar0qSbxsbNk7KKXpMBoqpYzR975V5/x1JWleWZO55b+LSkpoXMrSfgUG0ABEqyPgq7fvP/2b/+mAburrrrqo2eT/0ifMrXhzbp16zQLXluSXnTRRSlL75LfOK6AgBkB/VgdPXrUGQRUz7QqoalIyqs091EphbdpROI5Vqdd9FJApu0ntA2y07OlfzU3VBctLCwMTZPXLShY7JyCQHAJiwVIsD4K7saNG7X3+n333VdU1HmN9EcHJe2RPlyuX79edRg0aJBusKNfc0m7FAUjYK2APiZpYwUNAqrLSh1X6qBytlfQv8oektfsJO2il7wKdypZ80FD0+Q1haulpUUf85RjhQYTi4u5dU8nM75FIIIACdZHQJrerhG6O+6446OnUv5Iv9o0YqhP3jNmzLj22ms1WyLlVeCCCKSZgDqrtIzOmVmlW1Spb0YbFjiDgPqgkpWVlZr2/H4XveqG0GYuLtd1jolyFz2XcpLxkgC1XYXTuaWsS6sBdBX9bgx1bqkLMMp1AMmoHmUikC4CJFi/j5QzvV3ZlUYQzAZPv920VcSzzz6rT5DKsZRpeTucYbZ1XB0BrwQ0pK50yhkEVBKgRGr06NFOXmVw9xPtj7W3qn5PVb23u+h5hRZHOeoIDHVu6fek2EXtdG4p5dIXM0fjUOWUIAiQYP0+yr/73e80spDK6e3uby/9UnvmmWfeffddddFrxFAfGd2P51UEAiKgraqczqo9e/ZoJEsD+s7MKmVX/pkz1N7RkYxd9IyHWMswjx075syRVxeXbs6oKmn0MDRNXr+pUtZlaFyDCiDgLkCCddpH8za+973vXXbZZR//+MfdvVL8qnbo0bQwLa7WzHfNf098xVOK68/lEPBEQN26Gj138ir9gVefrjpOnM4q7fBEF68nyHEUcurUqdA0eU1sUPqloUNt/RDKt7RgM45iOQUBOwRIsE7H0ez0dvd3kn5naa8s7Zil7GrevHmTJ0/mz4m7GK9aI6CVH6EZ65qFrZsAhmasOzcEtKalFjREQ4fKfUP5lnIvNUpjtaFp8lq+w/poCwJNE6IXIME6vRefprerl1v7i0YPl+Ij1RW/du3a999/X+Mg2pV0wIABKa4Al0MgNQL6edT2Ac7MKv211rf6w+wMAmqfBf5CpyYKiV9Fv7JCM7fUuaU+SA3gKoKhzi1W8CSOTAk+FyDB6qWhh5///Oe6N45+ifs8Whoi0X0M9ZtLo5lXXHGFf2ac+NyN6vlfQLOpdENAZxBQ73C9t7ULqDMIaGTbFP+LpVENFVzlWKHOrbq6OlVe9ybSOK+Tb2nVZzqmzrbOtEujt5bPq0qC1Wv16tX6zf6FL3whLX7C9avq5Zdf3rBhg1buLFiwwPiaR5+/v6mezwWqqqqcpEo/gxpj0oiSk1TpDjZsBODz2MVXPXVJKuihzi2NKuoZ3a5HnVtOvqWUy//jv1orqoWiWi7qvlZ0dEnBmJKCghxuNRvfmyXtzwp6gqUbo2r39ssvv1w3XU6jYGrXH3VlaXqK7pk4f/583eAijSpPVQMuoNEidWY4g4AaDdQHmxEjRjiDgLohIFMMA/X20O16tPVDKN/STDs1X1MgQiOJ6tzy1VvCmt3OAvU2M9XYoCdYb775pjKVL33pS2m3lYs+9mlK1lNPPaWJwMoOL730UlZHm/op4rrRCGhgKHRDQH2w0b7qTmeVhgLz8/OjKYFj7BbQ7zTtZ6bkW19KuXSfVj2jxT1Ktpx8S71cZt8q2q9/49Gqprb2WAORn5U5c0iJt3fyjrUOHJ96gUAnWPrp/clPfqJRiSVLlqSe3pMraoMJLTDUMkN99Nfkd02B96RYCkkLAf9PAdGPmMaAnEFA/cmUqtbwO3mVHviqZyItIh6oSuqXmybI6m3jfOmTpJqvXTlC+VaK+zvT8Y6TgXrD+LCxgU6w9HP7i1/84s4779Tabx/GJvoq6b4WusGOPvZNnTp1zpw5adcbF31LOdIR8PkUEI37aBdQDQKqy0rL9TXDZuzYsU5excZIvIfjEFCmrnkRTs+Wfm+rc0uFaKpWKNlS55beZnGUHOUpiWdXzoVSf1fvKBvIYckQCHSC5Uxv1+7tFnyS1i8gbfv+9NNPa98sbUl64YUXpsWc/WS8p+0u089TQCoqKpyZVbqDjd6H6mBwZlZpihXj13a/LVPcOg0xq3MrlG+pr0u/w9W5FVqWqHEJD3+ra2Rww6EKr9p42Tn9GCv0CtPn5QQ3wdKPqHZv12YH6TW93f39pF503cRQtzLUDSt0gx19vHM/nlfTS8CHU0CUSCmdcgYB1cegREoLAJ3OKq3DTy9eapuOAvpsqaUS6tZy8i3d90Kt0CZboTWJ6txKZEcbfaRZt7c8jnlXPWFqPtac0WU5WZk9HcDz1ggEN8F64403tHXnfffdZ9+Amj7bacRQG8+cf/7511xzDRv62fHjmvgghYfDE7pXppNUaSmrBgT1Q+QkVZqxntSRGjtCSSuSJ6APmaFkS78J9eZUV5Y+cOrTplIufWlP6Zg6t946VrW/uqGjuxrveu+d51Y+uOWNV8oPH+xbUjp+2sylX/za0NFjuzv2rOdGFfc+fzBLv88ysfKbgCZY+tDz4x//WEMYt912m5Vx1Up43f9n/fr16lG49tprp0+fHtPvFCtN0rpRiWdXTvMTybH0U6MV9c4goNJ3Fag/Ws4goDZb5w2W1m8wKyuvX4Pq3HJ6tvSvhrDVTM0CDM3c0koL9+3W6lpa1+4p7wnnX77wfz54+81L510/cuK5VR+WP3n//zTW1313+WMjJkzq6ZTQ8/PHlLE/VkjD1gcBTbD0w/bLX/7Sgunt7u9LdTNoVtbmzZv1uU0jhvor6H58t6/6f6lat9W26UmzU0A0mB66IaC2WtA6+dANAekcteltZn1b9O5V55bzpc4tbdqsiapDhgxxOrf0rzq3OiFsKa/ZWVHXbfeVjvzgrTfHTpmW84fJ9Uf27fnyJ665ZN7CL/7LDzuV0+nbjF69JvQrnFxW1Ol5vrVMIKAJ1qpVqzRxRLu3B+Fj9759+zRiqPkxs2bNuuqqq7SvTJRvYp8vVYuyFel+mJEpIOqs0lwWZxDwwIED6gnQDGJnEFDJOusn0v1NRf31ltbi61DnljaXl4lGuvX2dvItjSpmZmU9vuu4s1d7lGJfvWWejvyXR9dGPD4nM2PhuEGZGcq1+LJWIIgJlgbptXu75rZrhru1gT27YZqJ/Oqrr7744ovqfpg3b955553nnln6eana2S2z/zuXKSChxu/ZunnFD7+nz9PNTY2Dho+cc+udCz/12dCrXR/0NAVEN6tROu4MAupPjkZPtLOak1dxt4CujDxjjYA6+9Wz5eRbGgfXD4ImVwwfP6nv9Muib6M+lnzuqguGj5vwt794IJqzZo8cUJqfE82RHJOmAkG8R5KGzPTxZcaMGWkasziqrV8Wuh3QlClTNK//4Ycf1kxk7UqqKWjdFhW+VK2nvvHwE51j9lU3HKttYrficJnEH2sKiGDdy3nn5ee/+/lPjz5vyuLP35dfUHjs4L6Tx09PkHL5UpmT+vcJTQHRzZWdzirdEFDjJhoocWZWaT1gIsuvXCrASwj4SkATsyad+VKt9HFUu+Oezrdqm5UzuX8WDW/Fi2serTh+9PYv/Hn4ky6PqxpbSLBcfCx4KXA9WPqB+e///m/d68rW6e0R35Tqn9DdgbT942WXXaasq9Nf0MQnUycyjTpi5YN2gPsUEGnU1576s/mXT5xxwZ9//2fRj9xpWGJ8aWFRY5XTWaVtG/VXxLkhoFIrv939LWhBp70+EXj7WPW+6vpoPmSqwof27PzGbder++r/3b9KH2gjNkE/g6OKC2YM7jzrK+KJHJBGAoHrwVInsNaVaJgsjYLkbVUnTJigcZ+XXnppw4YN6sxTV5b+pjqXSDy7UjnvnqjRv2NLC72tdgBL0/KCvVURfr+/9NhKLV9aet/XlV011tfn5udHk2bpb8b7xyu2rfxNQe/emrGusXLttK59sQOITJMR6Emgsa0tyuyqsvzEP/zRpwr69tXnnGiyK11RJav8ni7N83YIBC7B0iac2uRXY2R2xC++VqjX6uqrr/7Yxz6mrqxly5apa3z+/PmN2flObhRfmeFnqZw+udnsVhxuEsfj6qbWiBNsN7/yUkGfvhoT/Kc/vUeLmPILCq78xOJ7vvGt3LwIt0/Oys27/e57xw8fGk1CFkflOQWBdBdoa48qv6o7VfP3n7uzrqbmO/ev7DdocPStjrL86AvkSL8JBGszWU1v37p1q7bfjH5Y3W8B87A+Gie96667Fi1apNkG//2Tn766//Ttvbz62nS0SjPlvSotmOVoikbEhh/dv7etrVXZ1fTLr/rqD35+9S23r1v+mx9+40sRT9QBucX9yK6igeKYYApkZUZe4qdlJd/9/N36bPOXP/61xgdjgoqm/JgK5GC/CQSrB0t369McLO266bcwmKqPEk3NfNcQ4VPv7WzNcPt1ot8gy3/wz+9verO2unLAkGFXXH/zjff+cV7vgp5q3tjW/l55DbsV9+QTzfNKsPQL3v1DtDY2bGpomHv7pz7z199RmRfPva61pWXdiv+9/QtfHTrKrZtWJUeTwEVTT45BwEqB/Kws9x9ATYf/ty/98Y53Nv3Fj/5H8yBjQlDJKj+mUzg47QQClGAptdL4oIbDtGAk7eKU1Aq3Zma19e2vH/ievj48evjrty3UUNSCOz/dp7h0xzsbV/znv2prgK//1696OkXPd1qq5nIkL3UrEM0UEE260rmXL7wpVMLl19+sBEu/9N0TLKaAhMR4gEC3AiX5OR3V3b7y+yd//U/ffnP9ugtmz6mtrnrhd4+EDv34JxaFHvf0QH+PWk5VNvfrza2leiKy4PkAJVia3q69ExcsWGBB2LxtgmZSu39Qe2H1I3U11d+5f9WI8RN16blL7upo73h+9UP6tdKnuMc7aqlMlcxuxeHB0kde3RxNWyE4/4YedPtt67DxGX1Lw0/v+rhf2aCDO7eX9B8Qeqn4zO4btTWufxnOHM0UkBAaDxDoKqAEq+uT4c/se3+rvt343NP6L/z5aBKsXhkZzz352NrqSm0lP/LMl5bxap/C8HJ4nO4CAUqwnOntWkCX7jHztv7RLFWrrzuli5YM+OiveMnAgZq+k52T61IZ9ZHsqao/d0BfC3Yr1sZpSoacr/AMqdvEyOUwldOTmIZrtfhAH2f1r/Og76BRWZG24Rkz+WPvvvJixYljw8aMc0quPHFcD4pL+/V0odDzTAEJUfAAga4CxXnZ2m/dZaHJ3/3vR71WXU93f0Ylf/r22w4eOKB7img19yuvvKLfANo+XmmWk29xHyp3wLR4NSgJVn19vaa3z549W2/itAhMyioZzVK1KRdduupnP/qvv/rKkj/7c900fvvbG9c98JvrPvkZrVlzr6d+N6l8g5vpqR9emzJ3zXj0TLd5UqfnQ9+qEJeWasfz8MTISY/0YVR33nAed/q322+1urvTmzOabXguXXDDyp/98NmHH5h68eVODZ95aFlWdvbkiy51qbBe0o8BU0DciXg14AL6ZDi6pMDlXoRx++inb0xJwaCyokEDB15wwQX6NVVZWalMS1/bt29//fXXVbK2o3MyLe33y7SWuKnNnhiUBIvp7T29z6KZ6Tzjitl3fPFrj/zkB5pw4JSz6I+/uPS+v+ipzPDnVX58CZY6e7rNgbp9MpQJdepS0vP65RVen/DH6oTrmhgp+9GOUN3mQD092SkxCr9EIo8jTgFR4WPOm3r1otvXP7JcawknX3jJljdeffWpNbd87s8iLhcXSsQRkEQqz7kIWCCgNGhHRZ3nDdFPn1K3ULH6BdLvzJdzfxHdWUGZlm5apTsrbNy4UYfprhvq2VKmpZSr6x2pQ+XwwG8CgUiw9Cf2rbfeOvfccwsL2f2y8zswmqVqOqds2PDzLrj44rkL1YO16YVnHv3JD0oGlF13172dizv7e31QO3yyqlflcZcEqFNKFMqfXEbTdJFOuY6TJ6lTXb99nMfdZk6dzopyS8Cz25S676JMgP7oW/9UNmTY+kdXvPHMUwOGnnPPN759/d3/J5paRll+NEVxDAJWCuh2UrpxZ8TbVcXadpUZulFV13P1S0ybFOpLL+mWG7rbupIt/fv222/rGb3qZFpKtrSnY5I+3XWtFc/EIRCIW+Xo08CvfvWrT33qU0zA6voWefVwxdHapq7Phz/z8uOrfvRXX/7hUy/3HzzUef6H37jvlafW/GT9m31d5/oota05vP/Ay7/v99K5ymncE6BOOVC3eZKG5ILwa0XT4x7fddxlCkh4jGJ9rCkgC8cNsmB6XKwN53gEYhLQfn5P7y3XvjMxneVycH5W5pzRZTlZMW9CqYkuoWRLd0vUb1dNQnCGEfWv9jUMwm9FF1gfvhSIHixNb1f/q7J+HwbAeJWiWUr21AO/Hn3ulFB2pTpfePW851Y+uOf9LdMuvdKlCfqBHzlq1I0z/iyUJ7GzpQtXp5eSPQWE7KoTON8i0FVAmZDuYb/hUEXXl+J7RqXFkV3pWuqhD92RurGxUevinZ6tbdu2qb9fr4aSrYFnFiHFVz3O8lDA/gRLWb/ef7ozDNl9t++baP7KVn9YXnj2dgyaOK7S2qO4l1bv/Dxlt91emicjCqRmCkjEanAAAkEW0F2/dA97T+4kpnI8uYeY1tBog2h9KS6aVqG7cTjJ1tNPP629YPRqaDWitoHw88da9dNrIZRmqug/7fynD/xa3az1N5rAoP+0kDOav1C+fXPan2Bperv02b3deQuqV7muru7EiRO647Xz1WvImL4jx2Zmuu0pPGTUmHc3vHhk7+6ho8c65WjQUD+0Iyec6/7OZqmau0/EV41MAYlYKw5AIGgCzt3rE8yxlF055Xirp/EB3V3XucGu1jsr2Tq9HHH//ueee07fatJFKNkaOnSo5ld4e/W4S6tvadU+Ptor0ZkFoT8WoeVIpx+f2chPMxm0GkCfM12mrMVdgRScaPkcLOUTP/rRj5TC6457KdD02yXU/Nra2vB0SkmV+pZVT82F0soU9ST3GT62rmigdr1zqfzWN1/71qdv1fT2BXfeo383Pv/M2y+uv/bWpZ//f//qcpbz0oxBxeHrZSIezwGdBPwzBaRTxfgWgaAJHK9r0l1W45iPpXlXGhn0pO8qenP1Bx05csRJtjR5Sx1dyq7OOeccZyRRD5R7RV+ah0fqd5pupKalA+FJVU/lO8doWcDUsqL4hlZ7KjkFz6d9guXewVh19PBvfvPru+++OwgTsJRO1dTU/KFn6vf/b2o6PYFd6ZR2VdGXJkIqqdIDLT9x+o0rG1ue2/9hxLfazs1vr/jh9/a+v6W2qnLgsOFX3XTbTZ/9E+23FPHE2SMHxLdNQ8SSg3OAfq17OAXksnP6pfgXfXAiRUutF0jT5ECTtDQvPpRsNTQ06Pf/sGHDnGRr+PDheXl5qYmdfpttPFrVFPuiASNJaoImaZxgRehgPAPT0dpSe3D34quvKMyNnAokSJni05VOabuUTumUPqOoGvqYciab+iidKikp6WkYnqVqKQ5cfJfbXVmX4PCEc90kDVLE1yjOQiBNBfTXR2NbGuHqfnjrTKs0vKWxLfXf+214S387NKzhJFv6V5NGNEE5/I492ggwSXFJ/PdYev0GS8sEK6bPEL20z2RGRpp2MIbe5fqRqKqqCk+ndF9FJ51SN6+TToX+VToV04z+LeU1SdqteEK/Qu5FGApigg+C9rspQS5ORyDZAu7jJ2kxQVt/WU6ePBlKtjQGIrRBgwaFFiR6uHlk4r/BnICmUY6VfglWEDoY1Z3bNZ3SXp16e2k+YyiRch5o37mY0qmuv3T0aeypPeVdn0/8mfljyvz26S3xRhksIb2mgBiE4tIIIBCrgPMxPpRs6e49KkGzSkLJVlFRUaxlho4P5jyHNEuwEk+BfZj8Kp3SW7lT75Rz8zuNi3dKp/QWTzCdCr3jwx+8dawqGbsVnz+4JPwqPE5cIKbu27SeH5q4FSUggEDcAurNCiVbGjBROZq5G0q2Yhon0W+tdXvL45h31VPl496stacCk/R8OiVYiWdXDqLZHEvpVEVFRad0Sss9VDdtXtIpndJGvclIp7q+mfQD4JPdirvWjWe6CqT1FJCuzeEZBBDws4DmaYWSrePHj6uq+qgfSra0IN3975Q+wO+vbgjtwtCppQ11dat/8V9aR7XrvXdqq6v+9B/+/epblnQ6puu3mvbj/w/waZNgpWkHozKnrumUciy9XTSRsFM6pVumu79Nu77JPHwmTYU9FEi7oiyYApJ25lQYgYALaAWiNn1w8q2jR49qYFHztELJllapd/orVtfSutZ1CsqJQwc/f+2sAUOHDTpn5NY3XokywVIU/D8FJT0SrHTpYNS4Xqd0SvMHnXRK9zHolE7pTdnpjWj859aOPkLjjFQAAQQQCIKAtgHSHXucZOvw4cP6Y6eOg9C+poMHD9bq9YiLqFqam2qrq0vLBu56792/uHVBlAmW5j/4fxFVemxeoE3Jml23zdi9ZfOy//jH7W9vVDY9cfrMT371r3XvPJf3t3aKU5kJdjAqnVL+pME+LXnVELUe6FtVQNdV8qR0SptvXXjhhU5epWdc6uOTl/y8W7FPiKgGAggggIAjoFnC48586VstwwptIr9+/Xr9fdSSrBEjRxbMuLLD9U4hObl5yq5iJdUfWm2Tce6Avn6+l04aJFjqYHSff71n6+a/vvMm3Yr4tj/9cntH+9plv/7bTy76xwcfHzZmnEvMVOak/n2iX+Omd4/yJ2dXdCedUmeVk05paE/9orpTwaxZs/RAyy7UX+VyaT+/pByrT252Gu1W7GdM6oYAAggEREAbBo0+86X2KrtyNpE/UF7hnl0lgqNNyHQfQz9vZJ0GCZb2c3MWQ/UUiQd+8C+5+fnfXf67vqWnbyr88RsW/d/5l9//7//4tf/8eU+n6HmVqZJ72qVJ6ZSyqFA6pQfOmlWdqMl96pRS1u5sia50KnnbsrnUP3kvaZvvOaPLAnIrg+QxUjICCCAQTAFtdq2BQn3pj+zbx8/cVjA5ELpFNAlW/LSaxqsI9bT6wCn3/Y2vT79itpNd6ZnSgYMmX3jJpuef0dqE3j0PzIV3MGrHztCyPiev0jZUTuHaZUrp1MSJE0PplNb6xd+eNDlTt3zS+Kl6+ISfprsVp4k01UQAAQSsFVAC5N4/kkjLVbLKT6SEZJ/r9x4sdQA69yJwgWhpbs7LOyvpye3du7Wl+eDODyZMn+l2YnvH8lW/O7F/r+454xymvT2UTp133nnOxCn1TqXsDk0u9TT1ksZP1cOnQW5FQe9j/deoVZHtHVmZGflZWSX5OfovLXYrNgXIdRFAAIEgC+hPhnv/SCI4KlnlJ1JCss/1e4IVTX46dPTYHe9u0p9+3dJYXsq3dm5+Sw9OHj/mzqcZVFmFxVOmTAmlU5qU535KAF/VFEL1wfq5GzaAQaHJCCCAgP8F9IE8qZVMdvkJVj4NEqyIHYzzl9790299/b/+6is3ffZPOtrbH/7xf1SVn5BLc1Oju45ShwkfmzFj8P9v7/5B66riOIBTo1iT2KQWGysVqxWkoFTp4FBUnERK6eCiKFWqoLiIS3FydSu42Cxm0kFFsQWzFKog4v9CFQdt1UFpTCsxRhJS0qT+5IE8qJx73+n15VzzKRkeOff87rmfdwtffrl/RtKbGSVAgAABAgR6FYg/d/Q6paft/+v6PS3m0o1LD1h1GowPPrL/t6kzRycOf/jeW3GE2+/Yue+p594Zf2V91a185TcYL/3C/IYAAQIECLRCIC4mqWyRZB9IVI762dP7MLH0gFWzAfjYCy/uO/Dsz6e/GxzecPPtO9449HLY3bhte6VgzfqVdWxAgAABAgQIdAvEdboXa9xEOPn6xMKfczNn/34Jz5cfHJuZnooPDz1+YOja1Oulo0US9bt3V9rn0gNW/Qbg8Mjojl33dHy//uSjTTdsST8Hq7Nl/fqlfXPWQ4AAAQIEShaoGYCOToyfO/NL50A+OzYZP/H5vr0PpwNWbFOz/moRlR6wMhqMH08eiXdGPnHwpXhIf5q1/AZjev1GCRAgQIBAsQJxm/lVV6yrfBTA+PHPMw4hKkf9jIl9m1L04kKhToPx2y8+ffvVQ3ftvn94dOOpkyeOv/vm3fc+sGf/05WI5TcYKw/BBgQIECBAoEyBuJPsltHBUzPzjd9MGP2RW0cHS35PTnwjLQhYlefNprF4o+TAkdcOx5NFN2+96dHnD+598pmBK2sdWuENxspjtwEBAgQIEChWIGLQ9zPzjS8vEltEt8bLNltwXedtes0WbbBaPMn9/dPTlQ3GvD1Gg3HPbWOFR+C8QzOLAAECBAiUIHDi19n0C4UzFrlt5Jp43UjGxH5OqbhKqZ9L+dd9dRqM0Qxs/F8rGoyNH7WCBAgQIECgnwJ3Xr9h/UCTYSOqRc1+HkLevpo85rwVVM6KBmPjf76NnbaiwViJYwMCBAgQIFCyQLzcdteWJrtNUS1qlnzInbW1YInxRrxoBjZOGTWjcuNlFSRAgAABAgS6BcaGrt65uZmeU9SJat3Fi/3cgoAVdmu2wVjseWNhBAgQIECgvsD2jUOXn7GiQtSpv9PV3bIdAWvNNhhX9+SwdwIECBAg0JRAZKPdW6/Lux4rZsXcFqWrQCv9LsLu7/WH3+dPnp3r/k3e53ZF4LxjNIsAAQIECBQosLS88s25ubivMG41q7zAurNNXNITf8hqxXVX3eBtClix7svPWNJV99fvMwECBAgQ6L/AwtKFn2YXfpxd6DyGqTts/fM5HqUUd7nF865aesF0ywJWnATT8+e/mppdXF7p9YSIBmPcetCWi+N6PTrbEyBAgACBdgnEoy7/OH9hdnEpfhaXl5dXLsYLguMVefEM8PiJN+G0+kGV7QtYcfasnQZju/6rWC0BAgQIECDQEWhlwOosfS00GJ2mBAgQIECAQBsFWhywOtz/7wZjG08payZAgAABAgRaH7B8hQQIECBAgACB0gTa8Rys0tSshwABAgQIECCQEBCwEjiGCBAgQIAAAQI5AgJWjpo5BAgQIECAAIGEgICVwDFEgAABAgQIEMgRELBy1MwhQIAAAQIECCQEBKwEjiECBAgQIECAQI6AgJWjZg4BAgQIECBAICEgYCVwDBEgQIAAAQIEcgQErBw1cwgQIECAAAECCQEBK4FjiAABAgQIECCQIyBg5aiZQ4AAAQIECBBICAhYCRxDBAgQIECAAIEcAQErR80cAgQIECBAgEBCQMBK4BgiQIAAAQIECOQICFg5auYQIECAAAECBBICAlYCxxABAgQIECBAIEdAwMpRM4cAAQIECBAgkBAQsBI4hggQIECAAAECOQICVo6aOQQIECBAgACBhICAlcAxRIAAAQIECBDIERCwctTMIUCAAAECBAgkBASsBI4hAgQIECBAgECOgICVo2YOAQIECBAgQCAhIGAlcAwRIECAAAECBHIEBKwcNXMIECBAgAABAgkBASuBY4gAAQIECBAgkCMgYOWomUOAAAECBAgQSAgIWAkcQwQIECBAgACBHAEBK0fNHAIECBAgQIBAQkDASuAYIkCAAAECBAjkCPwFg2LXEviAPA4AAAAASUVORK5CYII=;" vertex="1" parent="1">
          <mxGeometry x="-427" y="101" width="463" height="463" as="geometry" />
        </mxCell>
        <mxCell id="vfQgxKkF1GxTrXVjqXVF-12" value="" style="endArrow=none;dashed=1;html=1;dashPattern=1 3;strokeWidth=2;rounded=0;fillColor=#e51400;strokeColor=#FF0000;" edge="1" parent="1">
          <mxGeometry width="50" height="50" relative="1" as="geometry">
            <mxPoint x="-499" y="340" as="sourcePoint" />
            <mxPoint x="43" y="672" as="targetPoint" />
          </mxGeometry>
        </mxCell>
        <mxCell id="vfQgxKkF1GxTrXVjqXVF-17" value="" style="ellipse;whiteSpace=wrap;html=1;aspect=fixed;fillColor=#00CC00;strokeColor=#82b366;opacity=50;" vertex="1" parent="1">
          <mxGeometry x="501" y="342" width="20" height="20" as="geometry" />
        </mxCell>
        <mxCell id="vfQgxKkF1GxTrXVjqXVF-18" value="" style="ellipse;whiteSpace=wrap;html=1;aspect=fixed;fillColor=#f0a30a;strokeColor=#BD7000;opacity=30;fontColor=#000000;" vertex="1" parent="1">
          <mxGeometry x="407" y="435" width="20" height="20" as="geometry" />
        </mxCell>
      </root>
    </mxGraphModel>
  </diagram>
</mxfile>
